<?xml version="1.0" encoding="UTF-8"?>
<svg version="1.1" xmlns="http://www.w3.org/2000/svg" width="433" height="577">
<path d="M0 0 C3.66850835 -0.06616548 7.33125833 -0.04804305 11 0 C12.1034375 0.00386719 13.206875 0.00773437 14.34375 0.01171875 C21.96347885 0.26986377 26.52340147 1.58958393 32 7 C31.73595202 5.02554603 31.73595202 5.02554603 31 3 C28.00384054 1.6954344 28.00384054 1.6954344 25 1 C25 0.67 25 0.34 25 0 C28.08301416 -0.11644156 31.16546123 -0.18732432 34.25 -0.25 C35.12269531 -0.28351563 35.99539062 -0.31703125 36.89453125 -0.3515625 C43.43337894 -0.45139224 43.43337894 -0.45139224 46.32421875 1.8515625 C47.15373047 2.91503906 47.15373047 2.91503906 48 4 C50.22923958 5.43897706 50.22923958 5.43897706 52.5625 6.625 C55.15530812 7.99792032 57.55138959 9.36759306 60 11 C60.969375 11.20625 61.93875 11.4125 62.9375 11.625 C68.91215107 13.19592119 74.20799552 17.22305066 79 21 C79 21.66 79 22.32 79 23 C79.7425 23.185625 80.485 23.37125 81.25 23.5625 C85.10121755 25.57563645 86.54257794 28.04141258 88 32 C88.67009271 34.99946261 89.25214306 38.00196339 89.78125 41.02929688 C90.62040567 45.6356299 91.92890969 49.80390843 93.625 54.1875 C97.70291315 65.14382087 97.63894259 76.49889851 96 88 C95.34 88.99 94.68 89.98 94 91 C93.34 91 92.68 91 92 91 C91.89494141 91.71260986 91.78988281 92.42521973 91.68164062 93.15942383 C90.92135868 96.32771912 89.71945905 98.62904603 88.09375 101.44921875 C87.51496094 102.46177734 86.93617188 103.47433594 86.33984375 104.51757812 C85.73269531 105.56365234 85.12554687 106.60972656 84.5 107.6875 C83.30190071 109.77463476 82.10397514 111.86186926 80.90625 113.94921875 C80.37322266 114.87049561 79.84019531 115.79177246 79.29101562 116.7409668 C77.26112795 120.29288637 76.73360847 123.03590426 76.25317383 127.11938477 C73.80408349 146.55868421 64.4616066 160.01742691 50.5 173.375 C49.88310303 173.97070801 49.26620605 174.56641602 48.63061523 175.18017578 C43.95264759 179.52651721 38.88122212 183.67844526 32.3125 184.22265625 C31.549375 184.16980469 30.78625 184.11695313 30 184.0625 C26.41558543 184.2714076 25.32993205 184.65719826 22.796875 187.2890625 C21.42985537 189.22480403 20.1064461 191.19207195 18.828125 193.1875 C16.57300373 196.65691734 14.024716 199.2021377 11 202 C5.8646099 200.79167292 3.10693748 199.44554418 -1 196 C-1.74378906 195.44441406 -2.48757812 194.88882813 -3.25390625 194.31640625 C-10.1179065 189.10162433 -15.71741373 183.12667521 -21.43261719 176.72753906 C-23.02327686 174.9743447 -24.64851328 173.26120795 -26.2890625 171.5546875 C-39.81370749 157.43238046 -39.81370749 157.43238046 -40 147 C-38.92723012 142.57789517 -37.55792628 138.97105184 -34 136 C-33.34 136 -32.68 136 -32 136 C-31.20935148 124.07399723 -31.20935148 124.07399723 -37 114 C-39.5417405 107.59826038 -39.26286113 101.2477659 -39.1875 94.4375 C-39.18685547 93.32697266 -39.18621094 92.21644531 -39.18554688 91.07226562 C-39.15772606 85.90686776 -38.89020163 81.09476729 -38 76 C-37.9816174 74.12497437 -38.0031253 72.24917546 -38.0625 70.375 C-38.11896288 61.18284293 -36.20478193 52.51649015 -34.0625 43.625 C-33.90491211 42.95887695 -33.74732422 42.29275391 -33.58496094 41.60644531 C-32.53194018 37.40913412 -30.96388737 33.83901146 -29 30 C-28.74715633 27.24853726 -28.74715633 27.24853726 -29 25 C-28.34 25 -27.68 25 -27 25 C-26.9175 24.2575 -26.835 23.515 -26.75 22.75 C-25.85190201 19.45697405 -24.61583926 18.14023212 -22 16 C-21.34 16 -20.68 16 -20 16 C-19.896875 14.9275 -19.79375 13.855 -19.6875 12.75 C-18.99924129 8.9958616 -18.56343483 7.68306179 -16 5 C-13.73046875 4.20703125 -13.73046875 4.20703125 -11.1875 3.8125 C-9.86685547 3.59400391 -9.86685547 3.59400391 -8.51953125 3.37109375 C-7.68808594 3.24863281 -6.85664062 3.12617187 -6 3 C-4.80375 2.79375 -3.6075 2.5875 -2.375 2.375 C-1.59125 2.25125 -0.8075 2.1275 0 2 C0 1.34 0 0.68 0 0 Z " fill="#684233" transform="translate(88,78)"/>
<path d="M0 0 C3.66850835 -0.06616548 7.33125833 -0.04804305 11 0 C12.1034375 0.00386719 13.206875 0.00773437 14.34375 0.01171875 C21.96347885 0.26986377 26.52340147 1.58958393 32 7 C31.73595202 5.02554603 31.73595202 5.02554603 31 3 C28.00384054 1.6954344 28.00384054 1.6954344 25 1 C25 0.67 25 0.34 25 0 C28.08301416 -0.11644156 31.16546123 -0.18732432 34.25 -0.25 C35.12269531 -0.28351563 35.99539062 -0.31703125 36.89453125 -0.3515625 C43.43337894 -0.45139224 43.43337894 -0.45139224 46.32421875 1.8515625 C47.15373047 2.91503906 47.15373047 2.91503906 48 4 C50.22923958 5.43897706 50.22923958 5.43897706 52.5625 6.625 C55.15530812 7.99792032 57.55138959 9.36759306 60 11 C60.969375 11.20625 61.93875 11.4125 62.9375 11.625 C68.91215107 13.19592119 74.20799552 17.22305066 79 21 C79 21.66 79 22.32 79 23 C79.7425 23.185625 80.485 23.37125 81.25 23.5625 C84.95723533 25.50037301 86.59734684 28.16761432 88 32 C88.25 35.9375 88.25 35.9375 88 39 C84.37471432 39.20140476 82.13498292 38.85776765 79 37 C79.33 37.99 79.66 38.98 80 40 C79.34 40 78.68 40 78 40 C78.495 41.23169922 78.495 41.23169922 79 42.48828125 C80.13690091 46.48075748 80.15114078 50.08780632 80 54.1875 C79.67909394 59.87615743 79.67909394 59.87615743 82 65 C82.33 63.68 82.66 62.36 83 61 C83.66 61 84.32 61 85 61 C89.1479151 65.62652069 88.27510986 71.18193584 88 77 C86.515 76.505 86.515 76.505 85 76 C84.23387509 80.3413745 83.8995798 83.72058813 85 88 C85 88.66 85 89.32 85 90 C85.061875 91.258125 85.12375 92.51625 85.1875 93.8125 C85.19449666 97.66765914 84.38240426 99.88454828 82 103 C81.34 103.66 80.68 104.32 80 105 C80 104.01 80 103.02 80 102 C79.34 102 78.68 102 78 102 C77.93941406 100.95199219 77.87882812 99.90398437 77.81640625 98.82421875 C77.73198262 97.44529952 77.64733553 96.06639395 77.5625 94.6875 C77.52318359 93.99720703 77.48386719 93.30691406 77.44335938 92.59570312 C77.25072585 89.52838465 76.97677283 86.93031848 76 84 C75.01 84 74.02 84 73 84 C72.505 85.485 72.505 85.485 72 87 C71.34 87 70.68 87 70 87 C69.731875 86.38125 69.46375 85.7625 69.1875 85.125 C68.04443152 82.7004767 68.04443152 82.7004767 65 81 C63.515 81.495 63.515 81.495 62 82 C62 80.35 62 78.7 62 77 C61.01 78.98 61.01 78.98 60 81 C59.34 81 58.68 81 58 81 C57.49384702 79.73160474 56.99530901 78.46016898 56.5 77.1875 C56.2215625 76.47980469 55.943125 75.77210938 55.65625 75.04296875 C55 73 55 73 55 70 C53.6078125 70.309375 53.6078125 70.309375 52.1875 70.625 C49 71 49 71 46 69 C46 70.32 46 71.64 46 73 C44.515 73.495 44.515 73.495 43 74 C42.525625 75.155 42.05125 76.31 41.5625 77.5 C40 81 40 81 38.0625 82.0625 C35.52990331 81.98575465 34.11191733 81.38366998 32 80 C31.67 79.34 31.34 78.68 31 78 C22.66049878 72.81598573 12.65069635 71.42352035 3 72 C3.495 70.515 3.495 70.515 4 69 C2.68 69 1.36 69 0 69 C0 68.34 0 67.68 0 67 C-0.99 66.67 -1.98 66.34 -3 66 C-3 65.34 -3 64.68 -3 64 C-6.11332248 64.66868314 -6.11332248 64.66868314 -7.1875 67.0625 C-7.455625 67.701875 -7.72375 68.34125 -8 69 C-8.66 69 -9.32 69 -10 69 C-10 69.66 -10 70.32 -10 71 C-10.94166016 71.88945312 -10.94166016 71.88945312 -11.90234375 72.796875 C-14.29663834 75.31155312 -14.80159161 76.90008885 -15.5625 80.25 C-16.41564938 83.74185182 -17.3232772 87.08572101 -18.625 90.4375 C-19.61797338 93.01020377 -20.380345 95.34016015 -21 98 C-21.99 97.67 -22.98 97.34 -24 97 C-23.34 95.68 -22.68 94.36 -22 93 C-23.485 93.495 -23.485 93.495 -25 94 C-24.625 91.0625 -24.625 91.0625 -24 88 C-23.01 87.505 -23.01 87.505 -22 87 C-22.33 86.67 -22.66 86.34 -23 86 C-23.99 86.495 -23.99 86.495 -25 87 C-25 86.01 -25 85.02 -25 84 C-26.65 84 -28.3 84 -30 84 C-30.19335938 83.37351562 -30.38671875 82.74703125 -30.5859375 82.1015625 C-30.84632812 81.28429687 -31.10671875 80.46703125 -31.375 79.625 C-31.63023438 78.81289062 -31.88546875 78.00078125 -32.1484375 77.1640625 C-32.89854283 74.83540815 -32.89854283 74.83540815 -35 73 C-34.5359375 71.7315625 -34.5359375 71.7315625 -34.0625 70.4375 C-32.98460499 66.95019263 -32.48599261 63.6102308 -32 60 C-31.67 59.34 -31.34 58.68 -31 58 C-30.93049459 56.45976004 -30.91547643 54.91665012 -30.9375 53.375 C-30.94652344 52.55773437 -30.95554687 51.74046875 -30.96484375 50.8984375 C-30.97644531 50.27195313 -30.98804688 49.64546875 -31 49 C-30.01 49 -29.02 49 -28 49 C-25.39585286 46.64587234 -25.39585286 46.64587234 -23 44 C-22.34 43.34 -21.68 42.68 -21 42 C-21.03342156 40.09497102 -21.0683406 38.1899483 -21.11328125 36.28515625 C-20.78355988 29.63388036 -17.73310788 24.35078797 -14 19 C-13.64141484 17.67323492 -13.2981424 16.34164079 -13 15 C-12.34 14.67 -11.68 14.34 -11 14 C-10.87625 13.38125 -10.7525 12.7625 -10.625 12.125 C-9.77156228 9.22331176 -8.6162614 8.45347856 -6 7 C-4.33380554 6.9603287 -2.66608987 6.95615553 -1 7 C-0.34 6.34 0.32 5.68 1 5 C0.34 4.34 -0.32 3.68 -1 3 C-0.67 2.01 -0.34 1.02 0 0 Z M66 76 C67 79 67 79 67 79 Z " fill="#141415" transform="translate(88,78)"/>
<path d="M0 0 C1.48117801 0.28127421 2.95993249 0.57533732 4.4375 0.875 C5.26121094 1.03742188 6.08492187 1.19984375 6.93359375 1.3671875 C7.95646484 1.68042969 7.95646484 1.68042969 9 2 C9.495 2.99 9.495 2.99 10 4 C10.99 4 11.98 4 13 4 C13.495 6.475 13.495 6.475 14 9 C13.34 9 12.68 9 12 9 C12 11.31 12 13.62 12 16 C10.68 16.33 9.36 16.66 8 17 C9.08711748 22.83090286 10.00123564 26.33423947 15 30 C18.40320934 30.67673447 18.40320934 30.67673447 22 31 C24.41984036 31.86321791 26.6699175 32.90628781 29 34 C29 34.66 29 35.32 29 36 C29.66 35.67 30.32 35.34 31 35 C31.46523063 33.10466658 31.46523063 33.10466658 31.625 30.9375 C31.810625 28.9884375 31.810625 28.9884375 32 27 C33.485 27.495 33.485 27.495 35 28 C32.87134379 56.38335672 27.23790544 75.56929123 5.75 94.9375 C4.50506726 95.96450689 3.25545081 96.98587774 2 98 C1.47535156 98.48210937 0.95070312 98.96421875 0.41015625 99.4609375 C-3.4678818 102.74162494 -6.3790461 103.2345433 -11.4375 103.625 C-15.54991915 104.10603985 -17.41520783 104.42849856 -20.40625 107.3515625 C-21.75157004 109.27123071 -23.04367298 111.2294005 -24.27734375 113.22265625 C-26.4537341 116.73153049 -28.98395356 119.21015704 -32 122 C-37.13752937 120.79116956 -39.89537723 119.45260251 -44 116 C-45.27230469 115.01 -45.27230469 115.01 -46.5703125 114 C-47.41335937 113.34 -48.25640625 112.68 -49.125 112 C-49.97320312 111.34 -50.82140625 110.68 -51.6953125 110 C-53.8392731 108.13947826 -55.40500516 106.33515584 -57 104 C-55.515 103.505 -55.515 103.505 -54 103 C-54 102.34 -54 101.68 -54 101 C-53.01 101 -52.02 101 -51 101 C-51 100.01 -51 99.02 -51 98 C-50.401875 97.896875 -49.80375 97.79375 -49.1875 97.6875 C-46.71756736 96.91123545 -45.67748765 95.92911079 -44 94 C-43.67 94.66 -43.34 95.32 -43 96 C-41.35636866 96.72159424 -39.68949614 97.39351421 -38 98 C-38 98.66 -38 99.32 -38 100 C-37.113125 99.814375 -36.22625 99.62875 -35.3125 99.4375 C-32.14821189 99.01957516 -30.05160358 99.19222258 -27 100 C-27.33 98.02 -27.66 96.04 -28 94 C-25.69 94.33 -23.38 94.66 -21 95 C-20.34 93.02 -19.68 91.04 -19 89 C-17.576875 89.309375 -17.576875 89.309375 -16.125 89.625 C-15.09375 89.74875 -14.0625 89.8725 -13 90 C-10.64046906 87.64046906 -10.50858587 86.22104383 -10 83 C-12.97 82.505 -12.97 82.505 -16 82 C-16 81.01 -16 80.02 -16 79 C-16.99 78.505 -16.99 78.505 -18 78 C-17.7215625 76.824375 -17.7215625 76.824375 -17.4375 75.625 C-16.74037734 73.02910225 -16.74037734 73.02910225 -18 71 C-16.72125 71.28875 -15.4425 71.5775 -14.125 71.875 C-9.09828073 72.99382464 -4.05314632 74.0083596 1 75 C1 73.68 1 72.36 1 71 C-1.31 71 -3.62 71 -6 71 C-6.144375 70.236875 -6.28875 69.47375 -6.4375 68.6875 C-6.9632594 65.91827092 -6.9632594 65.91827092 -8 63 C-5.03 63 -2.06 63 1 63 C1.495 62.01 1.495 62.01 2 61 C-0.31 61 -2.62 61 -5 61 C-5.495 59.02 -5.495 59.02 -6 57 C-5.34 57 -4.68 57 -4 57 C-3.67 55.02 -3.34 53.04 -3 51 C-2.34 51 -1.68 51 -1 51 C-0.67 49.68 -0.34 48.36 0 47 C-3.62197194 45.50859979 -7.27566618 44.2125738 -11 43 C-11 44.32 -11 45.64 -11 47 C-11.99 46.67 -12.98 46.34 -14 46 C-14 44.02 -14 42.04 -14 40 C-11.23723823 40.52268466 -8.6739124 41.10869587 -6 42 C-6 41.34 -6 40.68 -6 40 C-4.948125 39.443125 -3.89625 38.88625 -2.8125 38.3125 C0.78606601 36.18407986 3.58207569 34.51698081 6 31 C7.11635859 24.21371488 6.45012395 18.59792076 2.953125 12.6875 C1.73730602 10.53490245 1.36774326 8.42710549 1 6 C0.505 5.505 0.505 5.505 0 5 C-0.04063832 3.33382885 -0.042721 1.66611905 0 0 Z " fill="#8A543E" transform="translate(131,158)"/>
<path d="M0 0 C0.33 0 0.66 0 1 0 C1.08636719 0.70382813 1.17273438 1.40765625 1.26171875 2.1328125 C2.10743485 8.07610178 3.40117278 13.3905438 5.5625 19 C9.66371254 30.04544852 9.65258114 41.40319151 8 53 C7.34 53.99 6.68 54.98 6 56 C5.34 56 4.68 56 4 56 C3.8956665 56.71115967 3.79133301 57.42231934 3.68383789 58.1550293 C2.91651075 61.3473403 1.69473463 63.67614079 0.05859375 66.51953125 C-0.52470703 67.54111328 -1.10800781 68.56269531 -1.70898438 69.61523438 C-2.32064453 70.67033203 -2.93230469 71.72542969 -3.5625 72.8125 C-4.48579102 74.42415039 -4.48579102 74.42415039 -5.42773438 76.06835938 C-6.94564344 78.71587518 -8.46989764 81.35951856 -10 84 C-10.66 84 -11.32 84 -12 84 C-11.67 80.37 -11.34 76.74 -11 73 C-11.66 72.67 -12.32 72.34 -13 72 C-13 74.64 -13 77.28 -13 80 C-14.485 80.495 -14.485 80.495 -16 81 C-16 80.34 -16 79.68 -16 79 C-16.969375 78.855625 -17.93875 78.71125 -18.9375 78.5625 C-22 78 -22 78 -23 77 C-24.11375 76.87625 -25.2275 76.7525 -26.375 76.625 C-30 76 -30 76 -31.9375 74.5625 C-33 73 -33 73 -33 71 C-34.485 70.505 -34.485 70.505 -36 70 C-36.495 66.04 -36.495 66.04 -37 62 C-35.68 61.67 -34.36 61.34 -33 61 C-33 58.69 -33 56.38 -33 54 C-32.34 54 -31.68 54 -31 54 C-31.33 52.35 -31.66 50.7 -32 49 C-33.32 49.33 -34.64 49.66 -36 50 C-36 49.01 -36 48.02 -36 47 C-38.64 47 -41.28 47 -44 47 C-44 46.34 -44 45.68 -44 45 C-44.66 45 -45.32 45 -46 45 C-46.66 46.32 -47.32 47.64 -48 49 C-51.51670687 49.32713552 -53.36774339 49.47419246 -56.25 47.3125 C-57.1575 46.549375 -58.065 45.78625 -59 45 C-66.26469806 40.98222486 -71.83289659 38.84264424 -80.1875 38.9375 C-80.93708984 38.94201172 -81.68667969 38.94652344 -82.45898438 38.95117188 C-84.30602383 38.96293646 -86.15302213 38.98087135 -88 39 C-88 37.68 -88 36.36 -88 35 C-94.36444668 36.4098375 -94.36444668 36.4098375 -98.875 40.75 C-99.24625 41.8225 -99.6175 42.895 -100 44 C-100.7425 45.7015625 -100.7425 45.7015625 -101.5 47.4375 C-101.995 48.613125 -102.49 49.78875 -103 51 C-103.56157142 52.31289757 -104.12404235 53.62541083 -104.6875 54.9375 C-105.120625 55.948125 -105.55375 56.95875 -106 58 C-106.33 58 -106.66 58 -107 58 C-107.37503829 52.87447673 -106.14595604 49.62205916 -104 45 C-103.649375 43.9275 -103.29875 42.855 -102.9375 41.75 C-102 39 -102 39 -100 36 C-99.34 36 -98.68 36 -98 36 C-98 35.34 -98 34.68 -98 34 C-97.34 34 -96.68 34 -96 34 C-95.34 32.35 -94.68 30.7 -94 29 C-93.01 29 -92.02 29 -91 29 C-88.8125 31.5 -88.8125 31.5 -87 34 C-84.525 33.505 -84.525 33.505 -82 33 C-82.66 33.99 -83.32 34.98 -84 36 C-82.824375 35.9175 -81.64875 35.835 -80.4375 35.75 C-75.81482907 35.73525464 -71.56567088 36.68567809 -67.125 37.875 C-66.47072021 38.04870117 -65.81644043 38.22240234 -65.14233398 38.40136719 C-62.00103631 39.28202118 -59.74157919 40.17228054 -57 42 C-56.01 42.495 -56.01 42.495 -55 43 C-55 43.66 -55 44.32 -55 45 C-52.69 45.33 -50.38 45.66 -48 46 C-47.814375 44.8553125 -47.814375 44.8553125 -47.625 43.6875 C-47 41 -47 41 -45 38 C-44.01 38 -43.02 38 -42 38 C-42 36.68 -42 35.36 -42 34 C-41.401875 34.185625 -40.80375 34.37125 -40.1875 34.5625 C-37.83591238 35.22093687 -37.83591238 35.22093687 -35 34 C-33 35 -33 35 -32.1484375 36.99609375 C-31.89320313 37.80175781 -31.63796875 38.60742188 -31.375 39.4375 C-30.98441406 40.64212891 -30.98441406 40.64212891 -30.5859375 41.87109375 C-30 44 -30 44 -30 46 C-29.34 46 -28.68 46 -28 46 C-27.34 44.35 -26.68 42.7 -26 41 C-24.875 44.75 -24.875 44.75 -26 47 C-24.68 46.01 -23.36 45.02 -22 44 C-18 48.625 -18 48.625 -18 52 C-17.34 52 -16.68 52 -16 52 C-15.67 50.68 -15.34 49.36 -15 48 C-12 49 -12 49 -10 52 C-9.85778935 54.60245498 -9.81197068 57.09117684 -9.875 59.6875 C-9.88402344 60.38939453 -9.89304687 61.09128906 -9.90234375 61.81445312 C-9.92586296 63.54311525 -9.96173287 65.27160145 -10 67 C-9.34 67 -8.68 67 -8 67 C-7.67 67 -7.34 67 -7 67 C-6.505 65.515 -6.505 65.515 -6 64 C-5.34 63.67 -4.68 63.34 -4 63 C-4 61.7625 -4 60.525 -4 59.25 C-4 56.5 -4 53.75 -4 51 C-4.20625 50.01 -4.4125 49.02 -4.625 48 C-5.02554068 44.79567459 -4.73181073 43.6486517 -3 41 C-2.34 41 -1.68 41 -1 41 C-0.61041465 33.25661364 -0.61041465 33.25661364 -3 26 C-3.66 26 -4.32 26 -5 26 C-5 27.65 -5 29.3 -5 31 C-5.66 31.33 -6.32 31.66 -7 32 C-9.24596433 26.10434364 -9.13201105 20.67260874 -8.97265625 14.40234375 C-8.90824187 11.00991165 -8.90824187 11.00991165 -9.55859375 7.75390625 C-10 5 -10 5 -9 2 C-4.545 2.99 -4.545 2.99 0 4 C0 2.68 0 1.36 0 0 Z " fill="#3A2B26" transform="translate(176,113)"/>
<path d="M0 0 C0.66 0.99 1.32 1.98 2 3 C-1 5 -1 5 -3.4375 4.9375 C-6.62981643 5.01536138 -7.79989602 5.71841069 -10 8 C-10 9.32 -10 10.64 -10 12 C-10.99 12 -11.98 12 -13 12 C-13.103125 12.721875 -13.20625 13.44375 -13.3125 14.1875 C-14 17 -14 17 -15.375 19.25 C-18.34950013 24.28376946 -20.28003598 29.36127299 -19.8125 35.25 C-20 39 -20 39 -21.25390625 40.50390625 C-22.7828421 41.73810748 -24.39027755 42.87319428 -26 44 C-26.66 44.99 -27.32 45.98 -28 47 C-28.66 47 -29.32 47 -30 47 C-29.95875 48.2375 -29.9175 49.475 -29.875 50.75 C-29.76129139 54.16125822 -30.48602581 55.98352113 -32 59 C-32.45131833 61.51732093 -32.45131833 61.51732093 -32.625 64.125 C-32.69976562 64.99382812 -32.77453125 65.86265625 -32.8515625 66.7578125 C-32.94502909 68.16964993 -33 69.58507211 -33 71 C-32.67 71 -32.34 71 -32 71 C-30.68373308 74.61973402 -30 77.09567131 -30 81 C-28.35 81 -26.7 81 -25 81 C-24.67 81.66 -24.34 82.32 -24 83 C-22.515 82.01 -22.515 82.01 -21 81 C-21.33 82.32 -21.66 83.64 -22 85 C-22.66 85 -23.32 85 -24 85 C-24 86.65 -24 88.3 -24 90 C-23.34 90 -22.68 90 -22 90 C-22.33 91.32 -22.66 92.64 -23 94 C-22.34 94.33 -21.68 94.66 -21 95 C-20.67 93.35 -20.34 91.7 -20 90 C-19.67 90 -19.34 90 -19 90 C-19.14107747 91.45880109 -19.28802415 92.91703551 -19.4375 94.375 C-19.51871094 95.18710938 -19.59992188 95.99921875 -19.68359375 96.8359375 C-20 99 -20 99 -21 101 C-21.99 101 -22.98 101 -24 101 C-24 105.95 -24 110.9 -24 116 C-24.99 116 -25.98 116 -27 116 C-27.03738281 115.30132812 -27.07476562 114.60265625 -27.11328125 113.8828125 C-27.17902344 112.97273438 -27.24476562 112.06265625 -27.3125 111.125 C-27.39951172 109.76761719 -27.39951172 109.76761719 -27.48828125 108.3828125 C-27.7882039 105.63778399 -27.7882039 105.63778399 -31 104 C-31 103.01 -31 102.02 -31 101 C-32.32 100.67 -33.64 100.34 -35 100 C-35.33 98.68 -35.66 97.36 -36 96 C-34.515 95.01 -34.515 95.01 -33 94 C-32.71052184 90.09204482 -32.94541122 86.74964901 -34 83 C-34.12375 81.824375 -34.2475 80.64875 -34.375 79.4375 C-34.62932117 76.05466862 -34.62932117 76.05466862 -36.51953125 74.625 C-39.18857471 71.69539029 -38.32655509 68.07276096 -38.22265625 64.30078125 C-37.67880623 56.23844318 -35.95064946 48.46171939 -34.0625 40.625 C-33.90491211 39.95887695 -33.74732422 39.29275391 -33.58496094 38.60644531 C-32.53194018 34.40913412 -30.96388737 30.83901146 -29 27 C-28.74715633 24.24853726 -28.74715633 24.24853726 -29 22 C-28.34 22 -27.68 22 -27 22 C-26.9175 21.2575 -26.835 20.515 -26.75 19.75 C-25.85190201 16.45697405 -24.61583926 15.14023212 -22 13 C-21.34 13 -20.68 13 -20 13 C-19.896875 11.9275 -19.79375 10.855 -19.6875 9.75 C-18.99880445 5.99347881 -18.57501797 4.67733657 -16 2 C-13.625 1.20703125 -13.625 1.20703125 -11 0.8125 C-1.90634441 -0.63544814 -1.90634441 -0.63544814 0 0 Z " fill="#2F312E" transform="translate(88,81)"/>
<path d="M0 0 C0.99 0.33 1.98 0.66 3 1 C1.57136465 20.04932631 -0.2184428 35.80813239 -11 52 C-11.99 52.66 -12.98 53.32 -14 54 C-14.99 53.34 -15.98 52.68 -17 52 C-17.66 52 -18.32 52 -19 52 C-18.83886719 51.28199219 -18.67773438 50.56398437 -18.51171875 49.82421875 C-17.18314768 42.49172348 -17.92187023 35.4479744 -19.5546875 28.23828125 C-20.10658371 25.46427662 -20.14836783 22.81898874 -20 20 C-23.96 20.495 -23.96 20.495 -28 21 C-28.66 20.01 -29.32 19.02 -30 18 C-29.505 16.515 -29.505 16.515 -29 15 C-27.35 14.67 -25.7 14.34 -24 14 C-23.67 10.04 -23.34 6.08 -23 2 C-21 5 -21 5 -21 7 C-20.34 7 -19.68 7 -19 7 C-18.46375 7.804375 -17.9275 8.60875 -17.375 9.4375 C-14.00714185 13.07124168 -11.87684729 12.76776918 -7 13 C-6.01 13 -5.02 13 -4 13 C-4 11.35 -4 9.7 -4 8 C-3.01 8 -2.02 8 -1 8 C-0.67 5.36 -0.34 2.72 0 0 Z " fill="#A66650" transform="translate(163,185)"/>
<path d="M0 0 C2.98660307 2.98660307 2.97849425 5.87255442 3.28515625 9.98828125 C2.76561928 15.47544567 -0.49867919 18.94971493 -4 23 C-4.62261719 23.76957031 -5.24523437 24.53914063 -5.88671875 25.33203125 C-11.44791067 32.02717553 -11.44791067 32.02717553 -15 33 C-19.76078816 31.20322871 -23.6429145 28.22321138 -27.625 25.125 C-28.46417969 24.49271484 -28.46417969 24.49271484 -29.3203125 23.84765625 C-32.73809066 21.21177545 -35.44623866 18.4756069 -38 15 C-37.01 14.67 -36.02 14.34 -35 14 C-35 13.34 -35 12.68 -35 12 C-34.01 12 -33.02 12 -32 12 C-32 11.01 -32 10.02 -32 9 C-31.1028125 8.8453125 -31.1028125 8.8453125 -30.1875 8.6875 C-27.71756736 7.91123545 -26.67748765 6.92911079 -25 5 C-24.67 5.66 -24.34 6.32 -24 7 C-22.35636866 7.72159424 -20.68949614 8.39351421 -19 9 C-19 9.66 -19 10.32 -19 11 C-18.113125 10.814375 -17.22625 10.62875 -16.3125 10.4375 C-13.14821189 10.01957516 -11.05160358 10.19222258 -8 11 C-8.33 9.02 -8.66 7.04 -9 5 C-6.69 5.33 -4.38 5.66 -2 6 C-1.34 4.02 -0.68 2.04 0 0 Z " fill="#874C32" transform="translate(112,247)"/>
<path d="M0 0 C0.99 0 1.98 0 3 0 C5.1875 2.5 5.1875 2.5 7 5 C8.65 4.67 10.3 4.34 12 4 C11.01 5.485 11.01 5.485 10 7 C11.175625 6.9175 12.35125 6.835 13.5625 6.75 C18.18517093 6.73525464 22.43432912 7.68567809 26.875 8.875 C27.52927979 9.04870117 28.18355957 9.22240234 28.85766602 9.40136719 C31.99896369 10.28202118 34.25842081 11.17228054 37 13 C37.66 13.33 38.32 13.66 39 14 C39 14.66 39 15.32 39 16 C41.31 16.33 43.62 16.66 46 17 C46.12375 16.236875 46.2475 15.47375 46.375 14.6875 C47 12 47 12 49 9 C49.99 9 50.98 9 52 9 C52 7.68 52 6.36 52 5 C52.598125 5.185625 53.19625 5.37125 53.8125 5.5625 C56.16408762 6.22093687 56.16408762 6.22093687 59 5 C61 6 61 6 61.8515625 7.99609375 C62.10679687 8.80175781 62.36203125 9.60742188 62.625 10.4375 C62.88539063 11.24058594 63.14578125 12.04367188 63.4140625 12.87109375 C64 15 64 15 64 17 C64.66 17 65.32 17 66 17 C66.66 15.35 67.32 13.7 68 12 C69.125 15.75 69.125 15.75 68 18 C69.32 17.01 70.64 16.02 72 15 C74.0625 17.1875 74.0625 17.1875 76 20 C75.75 22.625 75.75 22.625 75 25 C74.65629795 27.95508863 74.65629795 27.95508863 76.3125 29.38671875 C76.869375 29.81597656 77.42625 30.24523437 78 30.6875 C78.99 31.450625 79.98 32.21375 81 33 C80.01 33.99 80.01 33.99 79 35 C76.28515625 34.6796875 76.28515625 34.6796875 73.0625 33.875 C71.47115234 33.49988281 71.47115234 33.49988281 69.84765625 33.1171875 C66.69340636 31.87971772 65.59157655 30.95739756 64 28 C64.3125 25.375 64.3125 25.375 65 23 C65 22.34 65 21.68 65 21 C64.34 21 63.68 21 63 21 C62.505 19.515 62.505 19.515 62 18 C60.35 17.67 58.7 17.34 57 17 C57 16.01 57 15.02 57 14 C54.23723823 14.52268466 51.6739124 15.10869587 49 16 C48.566875 16.680625 48.13375 17.36125 47.6875 18.0625 C46 20 46 20 43.125 20.5 C39.25575274 19.88092044 37.99105991 18.51520947 35 16 C27.73530194 11.98222486 22.16710341 9.84264424 13.8125 9.9375 C13.06291016 9.94201172 12.31332031 9.94652344 11.54101562 9.95117188 C9.69397617 9.96293646 7.84697787 9.98087135 6 10 C6 8.68 6 7.36 6 6 C-0.36444668 7.4098375 -0.36444668 7.4098375 -4.875 11.75 C-5.24625 12.8225 -5.6175 13.895 -6 15 C-6.495 16.134375 -6.99 17.26875 -7.5 18.4375 C-7.995 19.613125 -8.49 20.78875 -9 22 C-9.56157142 23.31289757 -10.12404235 24.62541083 -10.6875 25.9375 C-11.120625 26.948125 -11.55375 27.95875 -12 29 C-12.33 29 -12.66 29 -13 29 C-13.37503829 23.87447673 -12.14595604 20.62205916 -10 16 C-9.649375 14.9275 -9.29875 13.855 -8.9375 12.75 C-8 10 -8 10 -6 7 C-5.34 7 -4.68 7 -4 7 C-4 6.34 -4 5.68 -4 5 C-3.34 5 -2.68 5 -2 5 C-1.34 3.35 -0.68 1.7 0 0 Z " fill="#45302A" transform="translate(82,142)"/>
<path d="M0 0 C1.48117801 0.28127421 2.95993249 0.57533732 4.4375 0.875 C5.67306641 1.11863281 5.67306641 1.11863281 6.93359375 1.3671875 C7.61550781 1.57601562 8.29742187 1.78484375 9 2 C9.33 2.66 9.66 3.32 10 4 C10.99 4 11.98 4 13 4 C13.33 5.65 13.66 7.3 14 9 C13.34 9 12.68 9 12 9 C12 11.31 12 13.62 12 16 C10.68 16.33 9.36 16.66 8 17 C9.08711748 22.83090286 10.00123564 26.33423947 15 30 C18.40320934 30.67673447 18.40320934 30.67673447 22 31 C24.41984036 31.86321791 26.6699175 32.90628781 29 34 C28.67 35.98 28.34 37.96 28 40 C23.30979721 40.9196476 20.24927433 41.36070796 16 39 C14.1875 37.5 14.1875 37.5 13 36 C13 35.34 13 34.68 13 34 C12.34 34 11.68 34 11 34 C10.67 33.34 10.34 32.68 10 32 C9.97421875 32.62648437 9.9484375 33.25296875 9.921875 33.8984375 C9.86515625 34.71570313 9.8084375 35.53296875 9.75 36.375 C9.68039063 37.59316406 9.68039063 37.59316406 9.609375 38.8359375 C9 41 9 41 7.078125 42.3515625 C5 43 5 43 3 42 C2.34 45.63 1.68 49.26 1 53 C-0.32 52.67 -1.64 52.34 -3 52 C-2.01 51.505 -2.01 51.505 -1 51 C-0.34786708 48.97536745 -0.34786708 48.97536745 0 47 C-3.62197194 45.50859979 -7.27566618 44.2125738 -11 43 C-11 44.32 -11 45.64 -11 47 C-11.99 46.67 -12.98 46.34 -14 46 C-14 44.02 -14 42.04 -14 40 C-11.23723823 40.52268466 -8.6739124 41.10869587 -6 42 C-6 41.34 -6 40.68 -6 40 C-4.948125 39.443125 -3.89625 38.88625 -2.8125 38.3125 C0.78606601 36.18407986 3.58207569 34.51698081 6 31 C7.11635859 24.21371488 6.45012395 18.59792076 2.953125 12.6875 C1.73730602 10.53490245 1.36774326 8.42710549 1 6 C0.67 5.67 0.34 5.34 0 5 C-0.04063832 3.33382885 -0.042721 1.66611905 0 0 Z " fill="#824F40" transform="translate(131,158)"/>
<path d="M0 0 C0.37480512 3.97582088 0.66328489 7.95357806 0.9375 11.9375 C1.04384766 13.05447266 1.15019531 14.17144531 1.25976562 15.32226562 C1.63644033 21.43874528 1.48319283 25.19644724 -2.375 30.125 C-3.57296917 31.42628479 -4.78010419 32.71924771 -6 34 C-7.0391567 35.64253801 -8.06542939 37.29578301 -9 39 C-8.34 39 -7.68 39 -7 39 C-6.91868537 40.43655854 -6.86066441 41.8744483 -6.8125 43.3125 C-6.77769531 44.11300781 -6.74289063 44.91351563 -6.70703125 45.73828125 C-7.06337359 48.48924414 -7.84443889 49.32224589 -10 51 C-10.33 51 -10.66 51 -11 51 C-11.33 53.31 -11.66 55.62 -12 58 C-15.86560485 54.13439515 -15.06090396 48.03442078 -15.09765625 42.84765625 C-15.09106226 40.58591675 -15.07921514 38.32418734 -15.0625 36.0625 C-15.05798828 34.90169922 -15.05347656 33.74089844 -15.04882812 32.54492188 C-15.03710647 29.69656066 -15.0206976 26.84830778 -15 24 C-14.01 24 -13.02 24 -12 24 C-11.81824219 23.0821875 -11.63648437 22.164375 -11.44921875 21.21875 C-8.56227758 7.12455516 -8.56227758 7.12455516 -6 2 C-3.847995 0.77028286 -2.48502741 0 0 0 Z " fill="#706864" transform="translate(79,158)"/>
<path d="M0 0 C0.33 0.66 0.66 1.32 1 2 C2.32 2 3.64 2 5 2 C5 2.99 5 3.98 5 5 C6.65 5 8.3 5 10 5 C10.33 6.32 10.66 7.64 11 9 C11.66 9 12.32 9 13 9 C13.54372951 12.05847848 14 14.88772805 14 18 C15.17755859 18.45439453 15.17755859 18.45439453 16.37890625 18.91796875 C28.19125683 23.6284153 28.19125683 23.6284153 33 28 C33.4375 30.8125 33.4375 30.8125 33 33 C31.68 32.34 30.36 31.68 29 31 C29 33.64 29 36.28 29 39 C27.515 39.495 27.515 39.495 26 40 C26 39.34 26 38.68 26 38 C25.030625 37.855625 24.06125 37.71125 23.0625 37.5625 C20 37 20 37 19 36 C17.329375 35.814375 17.329375 35.814375 15.625 35.625 C12 35 12 35 10.0625 33.5625 C9 32 9 32 9 30 C8.01 29.67 7.02 29.34 6 29 C5.67 26.36 5.34 23.72 5 21 C6.32 20.67 7.64 20.34 9 20 C9 17.69 9 15.38 9 13 C9.66 13 10.32 13 11 13 C10.67 11.35 10.34 9.7 10 8 C8.68 8.33 7.36 8.66 6 9 C6 8.01 6 7.02 6 6 C3.36 6 0.72 6 -2 6 C-2.33 5.01 -2.66 4.02 -3 3 C-2.01 3 -1.02 3 0 3 C0 2.01 0 1.02 0 0 Z " fill="#634234" transform="translate(134,154)"/>
<path d="M0 0 C0.33 0 0.66 0 1 0 C1.08636719 0.70382813 1.17273438 1.40765625 1.26171875 2.1328125 C2.10743485 8.07610178 3.40117278 13.3905438 5.5625 19 C9.66371254 30.04544852 9.65258114 41.40319151 8 53 C7.34 53.99 6.68 54.98 6 56 C5.34 56 4.68 56 4 56 C3.505 58.475 3.505 58.475 3 61 C-0.3147668 56.82051142 -1.1858553 53.23378733 -2 48 C-1.01 48 -0.02 48 1 48 C1 47.34 1 46.68 1 46 C1.495 45.505 1.495 45.505 2 45 C1.7834375 43.8553125 1.7834375 43.8553125 1.5625 42.6875 C0.76466778 37.45726653 0.92310056 32.28042794 1 27 C1.99 27 2.98 27 4 27 C4.33 25.35 4.66 23.7 5 22 C4.34 22 3.68 22 3 22 C1.375 20.5 1.375 20.5 0 19 C-0.66 19.66 -1.32 20.32 -2 21 C-5.42857143 12.57142857 -5.42857143 12.57142857 -5 8 C-6.65 7.67 -8.3 7.34 -10 7 C-9.67 5.35 -9.34 3.7 -9 2 C-4.545 2.99 -4.545 2.99 0 4 C0 2.68 0 1.36 0 0 Z " fill="#55433C" transform="translate(176,113)"/>
<path d="M0 0 C0.99 0.33 1.98 0.66 3 1 C7.90090995 24.25015019 7.90090995 24.25015019 4 33 C5.98 32.505 5.98 32.505 8 32 C8.71484375 34.2578125 8.71484375 34.2578125 9 37 C7.62890625 38.9921875 7.62890625 38.9921875 5.5625 40.875 C4.45261719 41.90173828 4.45261719 41.90173828 3.3203125 42.94921875 C2.55460937 43.62597656 1.78890625 44.30273438 1 45 C0.31679687 45.62519531 -0.36640625 46.25039062 -1.0703125 46.89453125 C-5.1701489 50.58438401 -9.32363046 54.06580735 -14 57 C-14.99 56.67 -15.98 56.34 -17 56 C-15.87926138 55.16094435 -14.75325453 54.32892169 -13.625 53.5 C-12.99851562 53.0359375 -12.37203125 52.571875 -11.7265625 52.09375 C-10 51 -10 51 -8 51 C-8.350625 50.401875 -8.70125 49.80375 -9.0625 49.1875 C-10 47 -10 47 -9 44 C-8.34 44 -7.68 44 -7 44 C-6.67 41.69 -6.34 39.38 -6 37 C-3.625 35.9375 -3.625 35.9375 -1 35 C-0.34 35.33 0.32 35.66 1 36 C2.92471317 30.66164461 4.39891424 25.65020618 5 20 C3.70366379 21.06645115 3.70366379 21.06645115 3.9375 23.5625 C3.958125 24.366875 3.97875 25.17125 4 26 C2.35 26.33 0.7 26.66 -1 27 C-1.4021875 25.8553125 -1.4021875 25.8553125 -1.8125 24.6875 C-2.75746437 21.97473587 -2.75746437 21.97473587 -4.6875 20.6875 C-6.35949522 18.53779186 -6.1226902 17.66631218 -5.875 15 C-5.44660003 12.46685237 -5.0960367 11.13968974 -3.625 9 C-2 8 -2 8 1 8 C1.33 6.35 1.66 4.7 2 3 C0.02 3.33 -1.96 3.66 -4 4 C-3.67 3.01 -3.34 2.02 -3 1 C-2.01 1.33 -1.02 1.66 0 2 C0 1.34 0 0.68 0 0 Z " fill="#955F46" transform="translate(140,204)"/>
<path d="M0 0 C0.66 0 1.32 0 2 0 C2 0.99 2 1.98 2 3 C3.65 3 5.3 3 7 3 C7.33 3.66 7.66 4.32 8 5 C8.99 4.34 9.98 3.68 11 3 C10.67 4.32 10.34 5.64 10 7 C9.34 7 8.68 7 8 7 C8 8.65 8 10.3 8 12 C8.66 12 9.32 12 10 12 C9.67 13.32 9.34 14.64 9 16 C9.66 16.33 10.32 16.66 11 17 C11.33 15.35 11.66 13.7 12 12 C12.33 12 12.66 12 13 12 C12.85892253 13.45880109 12.71197585 14.91703551 12.5625 16.375 C12.48128906 17.18710938 12.40007812 17.99921875 12.31640625 18.8359375 C12 21 12 21 11 23 C10.01 23 9.02 23 8 23 C8 27.95 8 32.9 8 38 C7.01 38 6.02 38 5 38 C4.96261719 37.30132812 4.92523438 36.60265625 4.88671875 35.8828125 C4.82097656 34.97273438 4.75523438 34.06265625 4.6875 33.125 C4.60048828 31.76761719 4.60048828 31.76761719 4.51171875 30.3828125 C4.2117961 27.63778399 4.2117961 27.63778399 1 26 C1 25.01 1 24.02 1 23 C-0.32 22.67 -1.64 22.34 -3 22 C-3.33 20.68 -3.66 19.36 -4 18 C-3.01 17.34 -2.02 16.68 -1 16 C-0.76076614 12.77034285 -0.70646624 9.99801477 -1.625 6.875 C-2.16693205 4.16533974 -1.15242982 2.44043962 0 0 Z " fill="#452E29" transform="translate(56,159)"/>
<path d="M0 0 C0.99 0.33 1.98 0.66 3 1 C2.979375 1.886875 2.95875 2.77375 2.9375 3.6875 C2.99286219 6.62169631 3.3305734 9.15493696 4 12 C4.33 12 4.66 12 5 12 C5.29296875 18.0546875 5.29296875 18.0546875 5 20 C4.01 20.66 3.02 21.32 2 22 C2.26676204 23.98491642 2.26676204 23.98491642 3 26 C3.99 26.33 4.98 26.66 6 27 C6 27.99 6 28.98 6 30 C7.32 30.66 8.64 31.32 10 32 C10 35.3 10 38.6 10 42 C10.99 42 11.98 42 13 42 C13.33 46.29 13.66 50.58 14 55 C12.02 55.495 12.02 55.495 10 56 C10.66 51.71 11.32 47.42 12 43 C10.02 43 8.04 43 6 43 C5.06576355 39.98968256 4.95550089 39.13349732 6 36 C4.02 36.495 4.02 36.495 2 37 C2 35.68 2 34.36 2 33 C1.01 32.67 0.02 32.34 -1 32 C-3.09556638 27.80886724 -2.18492612 22.29217332 -2.1875 17.6875 C-2.20586914 15.97530273 -2.20586914 15.97530273 -2.22460938 14.22851562 C-2.22654297 13.12572266 -2.22847656 12.02292969 -2.23046875 10.88671875 C-2.23663208 9.37404419 -2.23663208 9.37404419 -2.24291992 7.83081055 C-1.988546 4.86652353 -1.24250622 2.6878392 0 0 Z " fill="#523B36" transform="translate(51,155)"/>
<path d="M0 0 C0.99 0.33 1.98 0.66 3 1 C3 2.32 3 3.64 3 5 C4.32 4.67 5.64 4.34 7 4 C8.125 8.75 8.125 8.75 7 11 C8.98 11 10.96 11 13 11 C13.23742822 16.81699134 12.63630379 21.37520572 11 27 C10.83817306 29.69394253 10.9051798 32.29762418 11 35 C10.34 34.67 9.68 34.34 9 34 C8.34 35.32 7.68 36.64 7 38 C6.34 37.67 5.68 37.34 5 37 C5 37.66 5 38.32 5 39 C2.69 39.99 0.38 40.98 -2 42 C-1.24455376 33.08573436 -1.24455376 33.08573436 2 29 C3.31276337 28.29368947 4.64453759 27.62043846 6 27 C7.0306184 16.90845859 7.0306184 16.90845859 3.5625 7.875 C2.716875 6.92625 1.87125 5.9775 1 5 C0.1875 2.0625 0.1875 2.0625 0 0 Z " fill="#5E504C" transform="translate(50,187)"/>
<path d="M0 0 C0.66 0 1.32 0 2 0 C3.20571943 2.90946313 4.38628225 5.82849916 5.5625 8.75 C5.90474609 9.575 6.24699219 10.4 6.59960938 11.25 C6.91865234 12.04921875 7.23769531 12.8484375 7.56640625 13.671875 C7.86490479 14.4050293 8.16340332 15.13818359 8.47094727 15.89355469 C9 18 9 18 8.44897461 20.09863281 C8.30081299 20.72608398 8.15265137 21.35353516 8 22 C10.16666667 24.83333333 10.16666667 24.83333333 13 27 C13.99 27 14.98 27 16 27 C16.66 28.98 17.32 30.96 18 33 C11.66422685 31.69355375 8.49756258 27.90323631 4.3125 23.3125 C3.31766602 22.26932617 3.31766602 22.26932617 2.30273438 21.20507812 C-1.56403441 17.03457523 -4.24220854 13.43439344 -6 8 C-5.6875 5.0625 -5.6875 5.0625 -5 3 C-3.35 2.67 -1.7 2.34 0 2 C0 1.34 0 0.68 0 0 Z " fill="#332118" transform="translate(55,224)"/>
<path d="M0 0 C0.99 0.66 1.98 1.32 3 2 C2.60882554 4.81645613 2.34486073 6.59308207 0.48046875 8.79296875 C-1.90410441 12.34780737 -1.36749042 16.04995883 -1.3984375 20.22265625 C-2 23 -2 23 -4.44140625 24.70703125 C-5.28574219 25.13371094 -6.13007812 25.56039062 -7 26 C-7.515625 26.86625 -8.03125 27.7325 -8.5625 28.625 C-10 31 -10 31 -12.1875 31.8125 C-12.785625 31.874375 -13.38375 31.93625 -14 32 C-13.53211337 26.61930375 -12.05055929 22.35462674 -9.83984375 17.4296875 C-8.9325179 14.80477272 -8.84793198 12.75684605 -9 10 C-8.34 10 -7.68 10 -7 10 C-6.95875 9.278125 -6.9175 8.55625 -6.875 7.8125 C-5.61647835 3.76725183 -3.36410883 2.50518743 0 0 Z " fill="#4D5152" transform="translate(68,93)"/>
<path d="M0 0 C0.33 0 0.66 0 1 0 C1.08636719 0.70382813 1.17273438 1.40765625 1.26171875 2.1328125 C2.11919064 8.15871586 3.4536864 13.55414618 5.625 19.25 C7.61428141 24.51197018 8.55853188 28.41468121 8 34 C6.02 32.35 4.04 30.7 2 29 C1.67 29.99 1.34 30.98 1 32 C1 30.35 1 28.7 1 27 C1.99 27 2.98 27 4 27 C4.33 25.35 4.66 23.7 5 22 C4.34 22 3.68 22 3 22 C1.375 20.5 1.375 20.5 0 19 C-0.66 19.66 -1.32 20.32 -2 21 C-5.42857143 12.57142857 -5.42857143 12.57142857 -5 8 C-6.65 7.67 -8.3 7.34 -10 7 C-9.67 5.35 -9.34 3.7 -9 2 C-4.545 2.99 -4.545 2.99 0 4 C0 2.68 0 1.36 0 0 Z " fill="#4C413B" transform="translate(176,113)"/>
<path d="M0 0 C1.27351308 2.54702616 0.80191925 3.4282945 0.0625 6.125 C-0.13214844 6.84945312 -0.32679687 7.57390625 -0.52734375 8.3203125 C-0.68332031 8.87460938 -0.83929688 9.42890625 -1 10 C-1.66 10 -2.32 10 -3 10 C-3.22945312 10.55300781 -3.45890625 11.10601562 -3.6953125 11.67578125 C-5.36717883 14.654106 -7.46706602 16.76884822 -9.875 19.1875 C-11.17050781 20.50814453 -11.17050781 20.50814453 -12.4921875 21.85546875 C-14.83068813 23.85521462 -16.00519208 24.64480185 -19 25 C-19.03738281 25.60328125 -19.07476562 26.2065625 -19.11328125 26.828125 C-19.79935773 35.16866261 -19.79935773 35.16866261 -23 38 C-23.99 38 -24.98 38 -26 38 C-26.33 37.34 -26.66 36.68 -27 36 C-27.66 36 -28.32 36 -29 36 C-28.67 32.04 -28.34 28.08 -28 24 C-27.34 24 -26.68 24 -26 24 C-25.01 26.97 -24.02 29.94 -23 33 C-22.505 32.505 -22.505 32.505 -22 32 C-22.020625 30.906875 -22.04125 29.81375 -22.0625 28.6875 C-22.0048129 25.28396118 -21.78499478 23.78905434 -20 21 C-19.34 21 -18.68 21 -18 21 C-17.690625 20.13375 -17.690625 20.13375 -17.375 19.25 C-15.50830178 16.19540291 -12.9858093 14.90583572 -10 13 C-9.67 12.34 -9.34 11.68 -9 11 C-8.36449219 10.71253906 -7.72898437 10.42507812 -7.07421875 10.12890625 C-4.51498284 8.73602644 -3.98178726 7.56720318 -2.8125 4.9375 C-1.04635762 1.04635762 -1.04635762 1.04635762 0 0 Z " fill="#915B47" transform="translate(114,190)"/>
<path d="M0 0 C1.22589844 0.01353516 1.22589844 0.01353516 2.4765625 0.02734375 C3.41628906 0.04474609 3.41628906 0.04474609 4.375 0.0625 C4.375 1.0525 4.375 2.0425 4.375 3.0625 C6.685 3.7225 8.995 4.3825 11.375 5.0625 C11.045 6.3825 10.715 7.7025 10.375 9.0625 C12.169375 9.0315625 12.169375 9.0315625 14 9 C17.55504869 8.99367429 20.88055624 9.36361125 24.375 10.0625 C24.705 9.0725 25.035 8.0825 25.375 7.0625 C26.365 7.3925 27.355 7.7225 28.375 8.0625 C27.715 8.3925 27.055 8.7225 26.375 9.0625 C25.65340576 10.70613134 24.98148579 12.37300386 24.375 14.0625 C19.38357237 13.53149706 15.01663521 12.38281284 10.29296875 10.68359375 C6.17037398 9.34857834 2.02865465 10.9415894 -2.09375 11.8203125 C-2.9290625 11.90023437 -3.764375 11.98015625 -4.625 12.0625 C-5.285 11.4025 -5.945 10.7425 -6.625 10.0625 C-5.305 10.0625 -3.985 10.0625 -2.625 10.0625 C-2.625 9.4025 -2.625 8.7425 -2.625 8.0625 C-3.615 7.7325 -4.605 7.4025 -5.625 7.0625 C-5.41875 6.44375 -5.2125 5.825 -5 5.1875 C-4.87625 4.48625 -4.7525 3.785 -4.625 3.0625 C-5.285 2.4025 -5.945 1.7425 -6.625 1.0625 C-4.21954362 -0.14022819 -2.67503047 -0.03821472 0 0 Z " fill="#3A231E" transform="translate(97.625,160.9375)"/>
<path d="M0 0 C0.99 0.33 1.98 0.66 3 1 C3.55543644 3.95635524 4.09482498 6.91410732 4.625 9.875 C4.78484375 10.71675781 4.9446875 11.55851563 5.109375 12.42578125 C5.25117188 13.23144531 5.39296875 14.03710938 5.5390625 14.8671875 C5.67521973 15.61081543 5.81137695 16.35444336 5.95166016 17.12060547 C5.9676123 17.74080566 5.98356445 18.36100586 6 19 C5.34 19.66 4.68 20.32 4 21 C3.83312552 23.58354218 3.83312552 23.58354218 4 26 C2.35 26.33 0.7 26.66 -1 27 C-1.268125 26.236875 -1.53625 25.47375 -1.8125 24.6875 C-2.75746437 21.97473587 -2.75746437 21.97473587 -4.6875 20.6875 C-6.35949522 18.53779186 -6.1226902 17.66631218 -5.875 15 C-5.44660003 12.46685237 -5.0960367 11.13968974 -3.625 9 C-2 8 -2 8 1 8 C1.33 6.35 1.66 4.7 2 3 C0.02 3.33 -1.96 3.66 -4 4 C-3.67 3.01 -3.34 2.02 -3 1 C-2.01 1.33 -1.02 1.66 0 2 C0 1.34 0 0.68 0 0 Z " fill="#975C48" transform="translate(140,204)"/>
<path d="M0 0 C0.99 0.66 1.98 1.32 3 2 C3 2.66 3 3.32 3 4 C4.98 3.67 6.96 3.34 9 3 C8.8125 5.3125 8.8125 5.3125 8 8 C7.175 8.433125 6.35 8.86625 5.5 9.3125 C2.87538539 10.70439055 2.87538539 10.70439055 2.4140625 12.890625 C1.81887442 17.06175515 1.81887442 17.06175515 3 21 C0.69 21 -1.62 21 -4 21 C-4.33 21.66 -4.66 22.32 -5 23 C-4.34 23.33 -3.68 23.66 -3 24 C-4.98 24 -6.96 24 -9 24 C-8.979375 23.21625 -8.95875 22.4325 -8.9375 21.625 C-8.81315937 19.01885039 -8.81315937 19.01885039 -10 17 C-7.03 17 -4.06 17 -1 17 C-0.67 16.34 -0.34 15.68 0 15 C-2.31 15 -4.62 15 -7 15 C-7.33 13.68 -7.66 12.36 -8 11 C-7.34 11 -6.68 11 -6 11 C-5.67 9.35 -5.34 7.7 -5 6 C-3.68 6.33 -2.36 6.66 -1 7 C-1.020625 6.030625 -1.04125 5.06125 -1.0625 4.0625 C-1 1 -1 1 0 0 Z " fill="#925B48" transform="translate(133,204)"/>
<path d="M0 0 C2.58432473 3.87648709 1.94987826 6.6018235 1.375 11 C1.22840942 12.14795044 1.22840942 12.14795044 1.07885742 13.3190918 C-0.5018847 24.59331041 -5.02311615 33.37990324 -11 43 C-11.495 41.515 -11.495 41.515 -12 40 C-11.34 39.01 -10.68 38.02 -10 37 C-10.0309375 35.7934375 -10.0309375 35.7934375 -10.0625 34.5625 C-9.98617 31.43296986 -9.04118221 30.29632999 -7 28 C-7 28.66 -7 29.32 -7 30 C-6.34 30 -5.68 30 -5 30 C-4.67 26.7 -4.34 23.4 -4 20 C-4.66 20 -5.32 20 -6 20 C-9.06707855 13.62047661 -9.06707855 13.62047661 -8.75 10.6875 C-8.19742351 9.44420289 -7.60846174 8.21692349 -7 7 C-3.9375 6.375 -3.9375 6.375 -1 6 C-0.67 4.02 -0.34 2.04 0 0 Z " fill="#DA9B76" transform="translate(163,194)"/>
<path d="M0 0 C2.02408755 0.09002398 4.04544287 0.24641038 6.0625 0.4375 C7.71958984 0.59025391 7.71958984 0.59025391 9.41015625 0.74609375 C10.26480469 0.82988281 11.11945313 0.91367188 12 1 C12 1.99 12 2.98 12 4 C13.794375 4.433125 13.794375 4.433125 15.625 4.875 C18.1695989 5.50555966 20.58044393 6.20137851 23.0625 7.0625 C26.36077924 8.11514231 29.56793242 8.58815189 33 9 C33 10.32 33 11.64 33 13 C25.52136987 13.65031566 19.19718614 11.13145743 13 7 C12.34 8.32 11.68 9.64 11 11 C10.67 9.68 10.34 8.36 10 7 C9.46375 7.37125 8.9275 7.7425 8.375 8.125 C5.05387103 9.34857383 3.18909583 8.30463011 0 7 C-0.38133299 5.0085944 -0.71325582 3.00720923 -1 1 C-0.67 0.67 -0.34 0.34 0 0 Z " fill="#6B2927" transform="translate(99,220)"/>
<path d="M0 0 C0.99 0 1.98 0 3 0 C5.1875 2.5 5.1875 2.5 7 5 C8.65 4.67 10.3 4.34 12 4 C11.01 5.485 11.01 5.485 10 7 C11.175625 6.9175 12.35125 6.835 13.5625 6.75 C20.61828856 6.70477059 27.29306035 9.02061333 34 11 C34 11.33 34 11.66 34 12 C32.56208484 11.85831863 31.1246763 11.71148957 29.6875 11.5625 C28.88699219 11.48128906 28.08648437 11.40007812 27.26171875 11.31640625 C25 11 25 11 22 10 C19.26134713 9.92948886 16.54972412 9.90642235 13.8125 9.9375 C13.06291016 9.94201172 12.31332031 9.94652344 11.54101562 9.95117188 C9.69397617 9.96293646 7.84697787 9.98087135 6 10 C6 8.68 6 7.36 6 6 C-0.36444668 7.4098375 -0.36444668 7.4098375 -4.875 11.75 C-5.24625 12.8225 -5.6175 13.895 -6 15 C-6.495 16.134375 -6.99 17.26875 -7.5 18.4375 C-7.995 19.613125 -8.49 20.78875 -9 22 C-9.56157142 23.31289757 -10.12404235 24.62541083 -10.6875 25.9375 C-11.120625 26.948125 -11.55375 27.95875 -12 29 C-12.33 29 -12.66 29 -13 29 C-13.37503829 23.87447673 -12.14595604 20.62205916 -10 16 C-9.649375 14.9275 -9.29875 13.855 -8.9375 12.75 C-8 10 -8 10 -6 7 C-5.34 7 -4.68 7 -4 7 C-4 6.34 -4 5.68 -4 5 C-3.34 5 -2.68 5 -2 5 C-1.34 3.35 -0.68 1.7 0 0 Z " fill="#403330" transform="translate(82,142)"/>
<path d="M0 0 C1.48117801 0.28127421 2.95993249 0.57533732 4.4375 0.875 C5.67306641 1.11863281 5.67306641 1.11863281 6.93359375 1.3671875 C7.61550781 1.57601562 8.29742187 1.78484375 9 2 C9.33 2.66 9.66 3.32 10 4 C10.99 4 11.98 4 13 4 C13.33 5.65 13.66 7.3 14 9 C13.34 9 12.68 9 12 9 C12 11.31 12 13.62 12 16 C10.68 16.33 9.36 16.66 8 17 C8 17.66 8 18.32 8 19 C7.34 19 6.68 19 6 19 C3.70624634 14.70054547 1.73794668 10.87044806 1 6 C0.67 5.67 0.34 5.34 0 5 C-0.04063832 3.33382885 -0.042721 1.66611905 0 0 Z " fill="#7C5243" transform="translate(131,158)"/>
<path d="M0 0 C2.27252249 1.4746635 3.88850666 2.65982581 5.11328125 5.109375 C4.12328125 5.109375 3.13328125 5.109375 2.11328125 5.109375 C3.43328125 6.759375 4.75328125 8.409375 6.11328125 10.109375 C5.78328125 10.769375 5.45328125 11.429375 5.11328125 12.109375 C4.10265625 11.635 3.09203125 11.160625 2.05078125 10.671875 C-0.69215878 9.47566383 -2.5778937 9.01721834 -5.63671875 8.609375 C-8.88671875 8.109375 -8.88671875 8.109375 -10.82421875 6.671875 C-11.88671875 5.109375 -11.88671875 5.109375 -11.88671875 3.109375 C-12.54671875 3.109375 -13.20671875 3.109375 -13.88671875 3.109375 C-13.88671875 1.789375 -13.88671875 0.469375 -13.88671875 -0.890625 C-9.29066151 -2.42264408 -4.42460819 -2.08863492 0 0 Z " fill="#4C2F23" transform="translate(154.88671875,180.890625)"/>
<path d="M0 0 C0.66 0 1.32 0 2 0 C2.391875 0.639375 2.78375 1.27875 3.1875 1.9375 C5.79236985 4.90166224 8.14733422 4.55052233 12 5 C14.41958164 5.86447189 16.66969838 6.90618495 19 8 C18.67 9.98 18.34 11.96 18 14 C13.30979721 14.9196476 10.24927433 15.36070796 6 13 C4.1875 11.5 4.1875 11.5 3 10 C3 9.34 3 8.68 3 8 C2.34 8 1.68 8 1 8 C-0.35439668 5.29120665 -0.06501451 2.99066732 0 0 Z " fill="#714638" transform="translate(141,184)"/>
<path d="M0 0 C0.66 0 1.32 0 2 0 C1.67 1.32 1.34 2.64 1 4 C1.99 4 2.98 4 4 4 C4.05422947 5.4370809 4.09289723 6.87475462 4.125 8.3125 C4.14820312 9.11300781 4.17140625 9.91351563 4.1953125 10.73828125 C4 13 4 13 2 16 C1.34 16 0.68 16 0 16 C-0.12375 16.639375 -0.2475 17.27875 -0.375 17.9375 C-0.58125 18.618125 -0.7875 19.29875 -1 20 C-1.66 20.33 -2.32 20.66 -3 21 C-3.66 20.67 -4.32 20.34 -5 20 C-5.33 21.98 -5.66 23.96 -6 26 C-6.66 26 -7.32 26 -8 26 C-8 23.03 -8 20.06 -8 17 C-6.68 16.34 -5.36 15.68 -4 15 C-3.40900187 13.01215092 -3.40900187 13.01215092 -3.4375 10.75 C-3.16659335 6.55771961 -2.16013927 3.66284485 0 0 Z " fill="#8F8785" transform="translate(73,166)"/>
<path d="M0 0 C2.30091975 2.30091975 2.3906152 2.91867164 2.5625 6.0625 C2.4635862 12.20504694 -1.14500254 15.57103625 -5 20 C-6.0391567 21.64253801 -7.06542939 23.29578301 -8 25 C-7.34 25 -6.68 25 -6 25 C-5.91868537 26.43655854 -5.86066441 27.8744483 -5.8125 29.3125 C-5.77769531 30.11300781 -5.74289063 30.91351563 -5.70703125 31.73828125 C-6.06337359 34.48924414 -6.84443889 35.32224589 -9 37 C-9.33 37 -9.66 37 -10 37 C-10.33 39.31 -10.66 41.62 -11 44 C-13 42 -13 42 -13.1875 39.4375 C-13 37 -13 37 -12 36 C-11.58621174 32.88154124 -11.22963123 29.76561203 -10.92578125 26.63476562 C-10.46643105 22.65243293 -9.98371295 19.80353704 -7 17 C-6.01 17 -5.02 17 -4 17 C-3.67 15.35 -3.34 13.7 -3 12 C-2.01 11.67 -1.02 11.34 0 11 C0 7.37 0 3.74 0 0 Z " fill="#726156" transform="translate(78,172)"/>
<path d="M0 0 C0.56847656 0.33773437 1.13695312 0.67546875 1.72265625 1.0234375 C6.46608636 3.76338211 10.71500651 5.62590169 16 7 C16.99 7.66 17.98 8.32 19 9 C18.67 9.99 18.34 10.98 18 12 C17.175 11.814375 16.35 11.62875 15.5 11.4375 C12.41774785 11.05221848 10.8092898 11.16204306 7.875 11.75 C6.59625 11.8325 5.3175 11.915 4 12 C1.12257836 9.41769852 -0.61088278 6.89117224 -1 3 C-0.67 2.01 -0.34 1.02 0 0 Z " fill="#1D1617" transform="translate(139,84)"/>
<path d="M0 0 C0.66 0.33 1.32 0.66 2 1 C2 1.66 2 2.32 2 3 C4.31 3 6.62 3 9 3 C8.67 3.99 8.34 4.98 8 6 C5.36 6 2.72 6 0 6 C0.33 6.66 0.66 7.32 1 8 C0.5625 10.125 0.5625 10.125 0 12 C-3.1778726 11.50345741 -6.20157738 10.69633051 -9.25 9.6875 C-10.27867188 9.35298828 -10.27867188 9.35298828 -11.328125 9.01171875 C-13 8 -13 8 -13.734375 5.89453125 C-13.82203125 5.26933594 -13.9096875 4.64414063 -14 4 C-13.32453125 4.04640625 -12.6490625 4.0928125 -11.953125 4.140625 C-6.26595069 4.51867616 -6.26595069 4.51867616 -1.375 2 C-0.92125 1.34 -0.4675 0.68 0 0 Z " fill="#7E4539" transform="translate(124,216)"/>
<path d="M0 0 C0.66 0.99 1.32 1.98 2 3 C-1 5 -1 5 -3.4375 4.9375 C-6.62981643 5.01536138 -7.79989602 5.71841069 -10 8 C-10 9.32 -10 10.64 -10 12 C-10.99 12 -11.98 12 -13 12 C-13.33 13.32 -13.66 14.64 -14 16 C-13.98839844 15.36191406 -13.97679688 14.72382812 -13.96484375 14.06640625 C-13.95582031 13.24011719 -13.94679688 12.41382812 -13.9375 11.5625 C-13.92009766 10.32693359 -13.92009766 10.32693359 -13.90234375 9.06640625 C-13.76732652 7.00836062 -13.76732652 7.00836062 -15 6 C-15.99 7.485 -15.99 7.485 -17 9 C-17.66 9 -18.32 9 -19 9 C-18.38722388 6.03824877 -17.74627478 4.61941217 -16 2 C-13.72265625 1.3046875 -13.72265625 1.3046875 -11.0625 0.875 C-1.95984329 -0.6532811 -1.95984329 -0.6532811 0 0 Z " fill="#202529" transform="translate(88,81)"/>
<path d="M0 0 C2.475 0.495 2.475 0.495 5 1 C5.33 5.62 5.66 10.24 6 15 C6.66 15 7.32 15 8 15 C7.34 16.32 6.68 17.64 6 19 C5.34 19 4.68 19 4 19 C4 20.65 4 22.3 4 24 C3.34 24.33 2.68 24.66 2 25 C0.0830427 19.37742839 -0.24889924 14.47630615 -0.125 8.5625 C-0.11597656 7.73556641 -0.10695312 6.90863281 -0.09765625 6.05664062 C-0.07431512 4.03763292 -0.03845288 2.01877644 0 0 Z " fill="#26211F" transform="translate(167,120)"/>
<path d="M0 0 C0.99 0.495 0.99 0.495 2 1 C1.67 3.97 1.34 6.94 1 10 C1.66 10 2.32 10 3 10 C3.33 8.02 3.66 6.04 4 4 C4.639375 3.896875 5.27875 3.79375 5.9375 3.6875 C6.618125 3.460625 7.29875 3.23375 8 3 C8.33 2.01 8.66 1.02 9 0 C9.66 0.33 10.32 0.66 11 1 C10.67 2.98 10.34 4.96 10 7 C9.01 7 8.02 7 7 7 C4.80571439 12.71342292 3.62038738 17.90875696 3.30859375 24.03125 C3.20675781 24.6809375 3.10492188 25.330625 3 26 C2.34 26.33 1.68 26.66 1 27 C-0.3308911 24.33821779 -0.11268993 22.31260604 -0.09765625 19.3359375 C-0.09443359 18.21445313 -0.09121094 17.09296875 -0.08789062 15.9375 C-0.07951172 14.761875 -0.07113281 13.58625 -0.0625 12.375 C-0.05798828 11.19164062 -0.05347656 10.00828125 -0.04882812 8.7890625 C-0.03701467 5.85932493 -0.02054258 2.92968728 0 0 Z " fill="#80726A" transform="translate(64,182)"/>
<path d="M0 0 C3.465 1.98 3.465 1.98 7 4 C7 4.66 7 5.32 7 6 C7.7425 6.185625 8.485 6.37125 9.25 6.5625 C12.95723533 8.50037301 14.59734684 11.16761432 16 15 C16.25 18.9375 16.25 18.9375 16 22 C14.35 22 12.7 22 11 22 C10.67 21.34 10.34 20.68 10 20 C10.66 20 11.32 20 12 20 C11.67 17.03 11.34 14.06 11 11 C10.13375 10.773125 9.2675 10.54625 8.375 10.3125 C4.38221186 8.75974905 2.15751695 6.85680105 -1 4 C-0.67 2.68 -0.34 1.36 0 0 Z " fill="#342D28" transform="translate(160,95)"/>
<path d="M0 0 C0.66 0.33 1.32 0.66 2 1 C2.33 0.67 2.66 0.34 3 0 C5.475 0.99 5.475 0.99 8 2 C8 2.66 8 3.32 8 4 C10.31 4.33 12.62 4.66 15 5 C15 6.65 15 8.3 15 10 C13.68 9.34 12.36 8.68 11 8 C11 10.64 11 13.28 11 16 C10.01 16 9.02 16 8 16 C7.731875 15.2575 7.46375 14.515 7.1875 13.75 C6.05770579 11.13363446 4.79106798 9.19812889 3 7 C3.99 7 4.98 7 6 7 C3.69 5.35 1.38 3.7 -1 2 C-0.67 1.34 -0.34 0.68 0 0 Z " fill="#795244" transform="translate(152,177)"/>
<path d="M0 0 C2.41700987 0.14129287 4.83350429 0.28786487 7.25 0.4375 C8.27287109 0.49647461 8.27287109 0.49647461 9.31640625 0.55664062 C16.62387972 1.01779186 16.62387972 1.01779186 19 2 C19.33 2.99 19.66 3.98 20 5 C4.97179788 7.98589894 4.97179788 7.98589894 -1 5 C-0.67 3.35 -0.34 1.7 0 0 Z " fill="#A05049" transform="translate(117,231)"/>
<path d="M0 0 C2.48216352 3.72324528 2.57565134 7.67831903 2 12 C0.6038245 14.91927604 -0.72202996 16.72202996 -3 19 C-3 18.01 -3 17.02 -3 16 C-3.66 16 -4.32 16 -5 16 C-5.08075665 13.70890403 -5.13907731 11.41700733 -5.1875 9.125 C-5.22230469 7.84882813 -5.25710937 6.57265625 -5.29296875 5.2578125 C-5.19628906 4.18273437 -5.09960938 3.10765625 -5 2 C-2 0 -2 0 0 0 Z " fill="#251D1A" transform="translate(171,164)"/>
<path d="M0 0 C2.55337724 2.55337724 2.43261395 3.95274418 2.75 7.5 C2.89695312 8.96953125 2.89695312 8.96953125 3.046875 10.46875 C3 13 3 13 1 15 C-1.8203125 14.5390625 -1.8203125 14.5390625 -5.125 13.625 C-6.76855469 13.18027344 -6.76855469 13.18027344 -8.4453125 12.7265625 C-9.70988281 12.36691406 -9.70988281 12.36691406 -11 12 C-10.01 11.67 -9.02 11.34 -8 11 C-8.33 9.02 -8.66 7.04 -9 5 C-6.69 5.33 -4.38 5.66 -2 6 C-1.34 4.02 -0.68 2.04 0 0 Z " fill="#794C38" transform="translate(112,247)"/>
<path d="M0 0 C1.32 0 2.64 0 4 0 C4.33 0.66 4.66 1.32 5 2 C5.99 1.34 6.98 0.68 8 0 C7.67 1.32 7.34 2.64 7 4 C6.34 4 5.68 4 5 4 C5 5.65 5 7.3 5 9 C5.66 9 6.32 9 7 9 C6.67 10.32 6.34 11.64 6 13 C6.66 13.33 7.32 13.66 8 14 C8.33 12.35 8.66 10.7 9 9 C9.33 9 9.66 9 10 9 C9.67 11.97 9.34 14.94 9 18 C7.68 18.33 6.36 18.66 5 19 C3.64560332 16.29120665 3.93498549 13.99066732 4 11 C2.35 11 0.7 11 -1 11 C-0.50168276 7.31245243 0.10067643 5.39509338 3 3 C1.68 3.33 0.36 3.66 -1 4 C-0.67 2.68 -0.34 1.36 0 0 Z " fill="#292525" transform="translate(59,162)"/>
<path d="M0 0 C0.45374191 5.67177385 -0.34916857 8.5975268 -4 13 C-4.66 13 -5.32 13 -6 13 C-6 14.65 -6 16.3 -6 18 C-6.33 18 -6.66 18 -7 18 C-7.33 15.03 -7.66 12.06 -8 9 C-9.32 9.33 -10.64 9.66 -12 10 C-10.22006006 5.8468068 -7.78173433 3.04807902 -3.875 0.75 C-2 0 -2 0 0 0 Z " fill="#64554E" transform="translate(86,150)"/>
<path d="M0 0 C0.7214186 4.72929973 1.17000116 8.31999534 0 13 C0 14.32 0 15.64 0 17 C-2 17 -2 17 -4.6875 14.5 C-6.82228965 11.84883055 -7.33208205 10.20224314 -7 6.8125 C-5.74008475 2.0090731 -5.13347214 0 0 0 Z " fill="#9E6A55" transform="translate(141,212)"/>
<path d="M0 0 C2.69082872 0.17635452 5.32851446 0.61835921 8 1 C5.1522881 8.92892333 -0.35465923 14.97547405 -7 20 C-7.4375 17.875 -7.4375 17.875 -7 15 C-4.916878 12.66537246 -2.61288556 10.72024819 0 9 C0.66 9 1.32 9 2 9 C2 8.01 2 7.02 2 6 C1.01 6 0.02 6 -1 6 C-1.042721 4.33388095 -1.04063832 2.66617115 -1 1 C-0.67 0.67 -0.34 0.34 0 0 Z " fill="#895C4A" transform="translate(105,260)"/>
<path d="M0 0 C0.66 0 1.32 0 2 0 C1 7.42857143 1 7.42857143 0 11 C-0.66 11 -1.32 11 -2 11 C-1.87625 11.845625 -1.7525 12.69125 -1.625 13.5625 C-2.13835819 18.26828345 -4.48297872 20.92032852 -8 24 C-8.66 24 -9.32 24 -10 24 C-10.33 24.66 -10.66 25.32 -11 26 C-10.51098901 19.64285714 -10.51098901 19.64285714 -8.0625 16.5625 C-6 15 -6 15 -4 15 C-3.67 10.38 -3.34 5.76 -3 1 C-2.01 1.33 -1.02 1.66 0 2 C0 1.34 0 0.68 0 0 Z " fill="#777774" transform="translate(60,199)"/>
<path d="M0 0 C5.53503556 0.46125296 10.45979952 1.63360745 15 5 C16 7.75 16 7.75 16 10 C8.25 10.125 8.25 10.125 6 9 C6.33 7.68 6.66 6.36 7 5 C4.69 4.67 2.38 4.34 0 4 C0 2.68 0 1.36 0 0 Z " fill="#563A33" transform="translate(102,161)"/>
<path d="M0 0 C6.27 0 12.54 0 19 0 C18.67 0.66 18.34 1.32 18 2 C17.64830932 3.32860925 17.31229724 4.66158328 17 6 C14.69 6 12.38 6 10 6 C10.33 7.32 10.66 8.64 11 10 C10.01 10.33 9.02 10.66 8 11 C7.855625 10.05125 7.71125 9.1025 7.5625 8.125 C7.17064601 5.1065506 7.17064601 5.1065506 6 3 C4.02111039 2.27306096 2.02045442 1.60183749 0 1 C0 0.67 0 0.34 0 0 Z " fill="#212023" transform="translate(113,78)"/>
<path d="M0 0 C1.22589844 0.01353516 1.22589844 0.01353516 2.4765625 0.02734375 C3.41628906 0.04474609 3.41628906 0.04474609 4.375 0.0625 C4.375 1.3825 4.375 2.7025 4.375 4.0625 C1.735 4.0625 -0.905 4.0625 -3.625 4.0625 C-3.625 4.7225 -3.625 5.3825 -3.625 6.0625 C0.005 6.3925 3.635 6.7225 7.375 7.0625 C7.045 8.0525 6.715 9.0425 6.375 10.0625 C4.58628822 10.45135039 2.79387126 10.82319196 1 11.1875 C0.00226563 11.39632812 -0.99546875 11.60515625 -2.0234375 11.8203125 C-2.88195312 11.90023437 -3.74046875 11.98015625 -4.625 12.0625 C-5.285 11.4025 -5.945 10.7425 -6.625 10.0625 C-5.305 10.0625 -3.985 10.0625 -2.625 10.0625 C-2.625 9.4025 -2.625 8.7425 -2.625 8.0625 C-3.615 7.7325 -4.605 7.4025 -5.625 7.0625 C-5.41875 6.44375 -5.2125 5.825 -5 5.1875 C-4.87625 4.48625 -4.7525 3.785 -4.625 3.0625 C-5.285 2.4025 -5.945 1.7425 -6.625 1.0625 C-4.21954362 -0.14022819 -2.67503047 -0.03821472 0 0 Z " fill="#30221C" transform="translate(97.625,160.9375)"/>
<path d="M0 0 C3.63 0.33 7.26 0.66 11 1 C11 6 11 6 9.875 7.875 C8 9 8 9 5 8.875 C0.56781193 7.58227848 0.56781193 7.58227848 -1 5 C-0.67 3.35 -0.34 1.7 0 0 Z " fill="#512B22" transform="translate(99,220)"/>
<path d="M0 0 C7.75 0.75 7.75 0.75 10 3 C10.39764263 4.98821313 10.73775349 6.98944339 11 9 C8.39417629 9.93065133 7.35801776 10.14917407 4.75 9.0625 C4.1725 8.711875 3.595 8.36125 3 8 C3 7.01 3 6.02 3 5 C0.69 5 -1.62 5 -4 5 C-3.01 4.34 -2.02 3.68 -1 3 C-0.67 2.01 -0.34 1.02 0 0 Z " fill="#814438" transform="translate(129,224)"/>
<path d="M0 0 C2.97 0.495 2.97 0.495 6 1 C6 1.66 6 2.32 6 3 C8.97 3.495 8.97 3.495 12 4 C14 10.625 14 10.625 14 14 C8.45889287 10.59008792 3.79031507 6.38579957 -1 2 C-0.67 1.34 -0.34 0.68 0 0 Z " fill="#8D553F" transform="translate(75,261)"/>
<path d="M0 0 C2.64649126 3.9697369 1.85748575 6.87960546 1.25 11.375 C1.16234375 12.13039062 1.0746875 12.88578125 0.984375 13.6640625 C0.47249318 17.73067922 -0.23814315 21.25232145 -2 25 C-2.33 25 -2.66 25 -3 25 C-2.96519531 24.16855469 -2.93039063 23.33710938 -2.89453125 22.48046875 C-2.86746094 21.39378906 -2.84039062 20.30710938 -2.8125 19.1875 C-2.77769531 18.10855469 -2.74289063 17.02960938 -2.70703125 15.91796875 C-3.03879974 12.61355461 -3.60117572 12.0966102 -6 10 C-6 9.01 -6 8.02 -6 7 C-4.35 6.67 -2.7 6.34 -1 6 C-0.67 4.02 -0.34 2.04 0 0 Z " fill="#DEB18D" transform="translate(163,194)"/>
<path d="M0 0 C-2.05751225 1.94303866 -4.12065496 3.87943134 -6.1875 5.8125 C-7.0547168 6.63331055 -7.0547168 6.63331055 -7.93945312 7.47070312 C-11.07934222 10.39771839 -14.06694521 13.17272584 -18 15 C-18.99 14.67 -19.98 14.34 -21 14 C-19.87926138 13.16094435 -18.75325453 12.32892169 -17.625 11.5 C-16.99851562 11.0359375 -16.37203125 10.571875 -15.7265625 10.09375 C-14 9 -14 9 -12 9 C-12.350625 8.401875 -12.70125 7.80375 -13.0625 7.1875 C-14 5 -14 5 -13 2 C-12.0925 1.87625 -11.185 1.7525 -10.25 1.625 C-7.08792842 1.1748472 -7.08792842 1.1748472 -4.8125 -0.125 C-3 -1 -3 -1 0 0 Z " fill="#8E6553" transform="translate(144,246)"/>
<path d="M0 0 C3.83663072 1.34929464 6.65172569 3.07751025 9.8125 5.625 C10.99779297 6.57246094 10.99779297 6.57246094 12.20703125 7.5390625 C12.79871094 8.02117187 13.39039063 8.50328125 14 9 C13.34 9.66 12.68 10.32 12 11 C9.1796875 10.5390625 9.1796875 10.5390625 5.875 9.625 C4.23144531 9.18027344 4.23144531 9.18027344 2.5546875 8.7265625 C1.29011719 8.36691406 1.29011719 8.36691406 0 8 C0 5.36 0 2.72 0 0 Z " fill="#271D19" transform="translate(149,166)"/>
<path d="M0 0 C0.66 0.66 1.32 1.32 2 2 C1.01 2.33 0.02 2.66 -1 3 C-1 3.99 -1 4.98 -1 6 C-0.360625 6.12375 0.27875 6.2475 0.9375 6.375 C1.618125 6.58125 2.29875 6.7875 3 7 C4.43088528 9.86177057 3.59991697 11.93375773 3 15 C1.68 14.67 0.36 14.34 -1 14 C-0.34 13.67 0.32 13.34 1 13 C1.65213292 10.97536745 1.65213292 10.97536745 2 9 C-1.62197194 7.50859979 -5.27566618 6.2125738 -9 5 C-9 6.32 -9 7.64 -9 9 C-9.99 8.67 -10.98 8.34 -12 8 C-12 6.02 -12 4.04 -12 2 C-9.23723823 2.52268466 -6.6739124 3.10869587 -4 4 C-4 3.34 -4 2.68 -4 2 C-2.68 1.34 -1.36 0.68 0 0 Z " fill="#7B4B3E" transform="translate(129,196)"/>
<path d="M0 0 C0.99 0.33 1.98 0.66 3 1 C3 2.32 3 3.64 3 5 C4.32 4.67 5.64 4.34 7 4 C8.125 8.75 8.125 8.75 7 11 C8.98 11 10.96 11 13 11 C13.21755666 16.4389165 13.10428384 20.87080814 11 26 C10.67 26 10.34 26 10 26 C9.78807779 20.80790596 10.4087311 16.873261 12 12 C11.34 12 10.68 12 10 12 C10 12.66 10 13.32 10 14 C5.50321534 12.50107178 3.25929279 8.95800917 1 5 C0.1875 2.0625 0.1875 2.0625 0 0 Z " fill="#5A4D48" transform="translate(50,187)"/>
<path d="M0 0 C1.5625 1.25 1.5625 1.25 3 3 C2.83959827 5.56642769 2.35982195 6.65517063 0.5 8.4375 C-1.24664742 9.95418431 -1.24664742 9.95418431 -1.375 12.5625 C-1.58125 13.366875 -1.7875 14.17125 -2 15 C-4.5390625 16.15234375 -4.5390625 16.15234375 -7 17 C-6.54705135 15.24859857 -6.08741252 13.49892656 -5.625 11.75 C-5.36976562 10.77546875 -5.11453125 9.8009375 -4.8515625 8.796875 C-4.10401491 6.34162697 -3.22876183 4.24382595 -2 2 C-1.34 2 -0.68 2 0 2 C0 1.34 0 0.68 0 0 Z " fill="#545753" transform="translate(61,106)"/>
<path d="M0 0 C0.99 0.66 1.98 1.32 3 2 C2.5206753 6.31392226 1.2542015 8.16569547 -2 11 C-3.32 10.34 -4.64 9.68 -6 9 C-5.69381595 5.32579134 -5.24228216 4.21864487 -2.4375 1.6875 C-1.633125 1.130625 -0.82875 0.57375 0 0 Z " fill="#434A49" transform="translate(68,93)"/>
<path d="M0 0 C1.27351308 2.54702616 0.80191925 3.4282945 0.0625 6.125 C-0.13214844 6.84945312 -0.32679687 7.57390625 -0.52734375 8.3203125 C-0.68332031 8.87460938 -0.83929688 9.42890625 -1 10 C-1.66 10 -2.32 10 -3 10 C-3.22816406 10.55171875 -3.45632812 11.1034375 -3.69140625 11.671875 C-5.37902066 14.67431736 -7.50959014 16.8113945 -9.9375 19.25 C-10.81277344 20.14203125 -11.68804687 21.0340625 -12.58984375 21.953125 C-15 24 -15 24 -18 24 C-18 23.34 -18 22.68 -18 22 C-16.35 21.34 -14.7 20.68 -13 20 C-13 19.34 -13 18.68 -13 18 C-10.47107279 15.26602464 -8.10404867 13.06936578 -5 11 C-4.06314892 8.8858856 -4.06314892 8.8858856 -3.4375 6.5 C-2.20273349 2.20273349 -2.20273349 2.20273349 0 0 Z " fill="#7D4D3E" transform="translate(114,190)"/>
<path d="M0 0 C0 1.32 0 2.64 0 4 C1.12019531 3.90460938 2.24039063 3.80921875 3.39453125 3.7109375 C4.8671435 3.59838115 6.33980237 3.4864337 7.8125 3.375 C8.55048828 3.31054688 9.28847656 3.24609375 10.04882812 3.1796875 C15.66015625 2.7734375 15.66015625 2.7734375 19 5 C18.15236084 5.029729 18.15236084 5.029729 17.28759766 5.06005859 C14.73292003 5.15518236 12.17907459 5.26491058 9.625 5.375 C8.73554687 5.4059375 7.84609375 5.436875 6.9296875 5.46875 C6.07890625 5.50742188 5.228125 5.54609375 4.3515625 5.5859375 C3.17327881 5.63306885 3.17327881 5.63306885 1.97119141 5.68115234 C-0.23002939 5.8399465 -0.23002939 5.8399465 -2 8 C-2 6.02 -2 4.04 -2 2 C-2.94875 2.495 -3.8975 2.99 -4.875 3.5 C-8 5 -8 5 -10 5 C-9.67 4.01 -9.34 3.02 -9 2 C-5.82757352 0.68964993 -3.44118336 0 0 0 Z " fill="#4A332D" transform="translate(88,148)"/>
<path d="M0 0 C0.66 0.33 1.32 0.66 2 1 C1.34 1.66 0.68 2.32 0 3 C1.175625 2.9175 2.35125 2.835 3.5625 2.75 C10.61828856 2.70477059 17.29306035 5.02061333 24 7 C24 7.33 24 7.66 24 8 C22.56208484 7.85831863 21.1246763 7.71148957 19.6875 7.5625 C18.88699219 7.48128906 18.08648437 7.40007812 17.26171875 7.31640625 C15 7 15 7 12 6 C9.26134713 5.92948886 6.54972412 5.90642235 3.8125 5.9375 C2.68811523 5.94426758 2.68811523 5.94426758 1.54101562 5.95117188 C-0.30602383 5.96293646 -2.15302213 5.98087135 -4 6 C-3.6875 4.125 -3.6875 4.125 -3 2 C-2.01 1.34 -1.02 0.68 0 0 Z " fill="#2E211D" transform="translate(92,146)"/>
<path d="M0 0 C1.98 0.99 1.98 0.99 4 2 C4.33 2.99 4.66 3.98 5 5 C5.66 5 6.32 5 7 5 C7 7.64 7 10.28 7 13 C6.01 12.67 5.02 12.34 4 12 C3.67 11.34 3.34 10.68 3 10 C2.01 10.495 2.01 10.495 1 11 C0.67 7.37 0.34 3.74 0 0 Z " fill="#77655D" transform="translate(178,142)"/>
<path d="M0 0 C0.598125 0.185625 1.19625 0.37125 1.8125 0.5625 C4.16408762 1.22093687 4.16408762 1.22093687 7 0 C9 1 9 1 9.8515625 3.03125 C10.10679687 3.8459375 10.36203125 4.660625 10.625 5.5 C10.88539063 6.3146875 11.14578125 7.129375 11.4140625 7.96875 C12 10 12 10 12 11 C10.35 11 8.7 11 7 11 C7.33 10.01 7.66 9.02 8 8 C7.34 8 6.68 8 6 8 C5.67 6.68 5.34 5.36 5 4 C3.35 4 1.7 4 0 4 C0 2.68 0 1.36 0 0 Z " fill="#372520" transform="translate(134,147)"/>
<path d="M0 0 C2.375 1.5 2.375 1.5 4 3 C3.67 3.99 3.34 4.98 3 6 C2.175 5.814375 1.35 5.62875 0.5 5.4375 C-3.61926719 4.9225916 -6.90823355 5.36507072 -11 6 C-11 5.34 -11 4.68 -11 4 C-10.34 4 -9.68 4 -9 4 C-9 3.34 -9 2.68 -9 2 C-5.51131349 -0.32579101 -4.10281481 -0.41865457 0 0 Z " fill="#211F1E" transform="translate(154,90)"/>
<path d="M0 0 C2.97 0.495 2.97 0.495 6 1 C5 3 4 5 3 7 C5.97 7.99 8.94 8.98 12 10 C11.01 10.495 11.01 10.495 10 11 C10.66 12.32 11.32 13.64 12 15 C10.68 14.67 9.36 14.34 8 14 C8 13.34 8 12.68 8 12 C5.03 11.505 5.03 11.505 2 11 C2 10.01 2 9.02 2 8 C1.34 7.67 0.68 7.34 0 7 C0.185625 6.21625 0.37125 5.4325 0.5625 4.625 C1.25962266 2.02910225 1.25962266 2.02910225 0 0 Z " fill="#7C4131" transform="translate(113,229)"/>
<path d="M0 0 C2.64 0 5.28 0 8 0 C7.01 0.33 6.02 0.66 5 1 C5.33 1.99 5.66 2.98 6 4 C5.34 4 4.68 4 4 4 C3.67 5.32 3.34 6.64 3 8 C0.69 8 -1.62 8 -4 8 C-4.33 7.01 -4.66 6.02 -5 5 C-3.35 5 -1.7 5 0 5 C0 3.35 0 1.7 0 0 Z M-6 7 C-5.67 8.32 -5.34 9.64 -5 11 C-5.66 10.01 -6.32 9.02 -7 8 C-6.67 7.67 -6.34 7.34 -6 7 Z " fill="#302D2D" transform="translate(162,114)"/>
<path d="M0 0 C1.03060547 0.25136719 1.03060547 0.25136719 2.08203125 0.5078125 C2.98308594 0.71148437 3.88414062 0.91515625 4.8125 1.125 C6.15248047 1.43824219 6.15248047 1.43824219 7.51953125 1.7578125 C10.25246634 2.28880522 10.25246634 2.28880522 13 0 C14.65 1.98 16.3 3.96 18 6 C17.67 6.66 17.34 7.32 17 8 C15.989375 7.525625 14.97875 7.05125 13.9375 6.5625 C11.16835663 5.34924449 9.35493033 4.92474187 6.25 4.5625 C3 4 3 4 1.296875 1.96484375 C0.86890625 1.31644531 0.4409375 0.66804687 0 0 Z " fill="#4B2E28" transform="translate(143,185)"/>
<path d="M0 0 C0.66 0 1.32 0 2 0 C0.57250019 3.79049707 -1.16236542 7.27122456 -3.125 10.8125 C-3.93324219 12.27623047 -3.93324219 12.27623047 -4.7578125 13.76953125 C-5.16773438 14.50558594 -5.57765625 15.24164063 -6 16 C-6.66 16 -7.32 16 -8 16 C-7.71788123 14.3733152 -7.42397625 12.74867104 -7.125 11.125 C-6.96257812 10.22007812 -6.80015625 9.31515625 -6.6328125 8.3828125 C-6 6 -6 6 -4 4 C-3.01 4 -2.02 4 -1 4 C-0.67 2.68 -0.34 1.36 0 0 Z " fill="#453321" transform="translate(172,181)"/>
<path d="M0 0 C0.99 0.66 1.98 1.32 3 2 C3 2.66 3 3.32 3 4 C4.98 3.67 6.96 3.34 9 3 C8.67 4.65 8.34 6.3 8 8 C4.7 8 1.4 8 -2 8 C-1.125 1.125 -1.125 1.125 0 0 Z " fill="#8E5340" transform="translate(133,204)"/>
<path d="M0 0 C1.32 0.66 2.64 1.32 4 2 C4 5.3 4 8.6 4 12 C1.5625 10.875 1.5625 10.875 -1 9 C-1.9375 6 -1.9375 6 -2 3 C-1.34 2.01 -0.68 1.02 0 0 Z " fill="#483D39" transform="translate(162,163)"/>
<path d="M0 0 C0.66 0.33 1.32 0.66 2 1 C1.979375 2.2375 1.95875 3.475 1.9375 4.75 C1.92529327 7.07334683 1.94931907 8.83275294 2.625 11.0625 C3.24372104 14.25922536 1.99072405 16.96954995 1 20 C0.67 20 0.34 20 0 20 C-0.36116046 18.5225254 -0.71375048 17.04295325 -1.0625 15.5625 C-1.25972656 14.73878906 -1.45695313 13.91507813 -1.66015625 13.06640625 C-1.82837891 12.04353516 -1.82837891 12.04353516 -2 11 C-1.67 10.67 -1.34 10.34 -1 10 C-1.185625 9.071875 -1.37125 8.14375 -1.5625 7.1875 C-2.02183003 3.84095263 -1.80177489 2.75565572 0 0 Z " fill="#342A26" transform="translate(173,154)"/>
<path d="M0 0 C1.125 3.75 1.125 3.75 0 6 C1.32 5.01 2.64 4.02 4 3 C5.5 4.375 5.5 4.375 7 6 C7 6.66 7 7.32 7 8 C6.4225 7.7525 5.845 7.505 5.25 7.25 C4.5075 7.1675 3.765 7.085 3 7 C0.85410577 8.89586384 0.85410577 8.89586384 -1 11 C-1.66 11 -2.32 11 -3 11 C-3.33 9.02 -3.66 7.04 -4 5 C-3.34 5 -2.68 5 -2 5 C-1.34 3.35 -0.68 1.7 0 0 Z " fill="#3A2823" transform="translate(150,154)"/>
<path d="M0 0 C0.33 0.99 0.66 1.98 1 3 C1.66 3 2.32 3 3 3 C3.33 5.64 3.66 8.28 4 11 C3.01 11.495 3.01 11.495 2 12 C1.54625 11.360625 1.0925 10.72125 0.625 10.0625 C-0.83921726 7.90297594 -0.83921726 7.90297594 -3 7 C-3.72693904 5.02111039 -4.39816251 3.02045442 -5 1 C-3.35 0.67 -1.7 0.34 0 0 Z " fill="#8B5E4C" transform="translate(137,161)"/>
<path d="M0 0 C2.475 0.495 2.475 0.495 5 1 C5.13609467 9.16568047 5.13609467 9.16568047 4 13 C4 13.99 4 14.98 4 16 C3.34 16 2.68 16 2 16 C0.5192152 13.0384304 0.64685963 10.16493705 0.4375 6.875 C0.35371094 5.59367187 0.26992187 4.31234375 0.18359375 2.9921875 C0.12300781 2.00476563 0.06242188 1.01734375 0 0 Z " fill="#2F2927" transform="translate(167,120)"/>
<path d="M0 0 C5.02254631 -0.2954439 7.89542386 0.01485372 12 3 C11.01 4.485 11.01 4.485 10 6 C6.7 5.01 3.4 4.02 0 3 C0 2.01 0 1.02 0 0 Z " fill="#271410" transform="translate(143,182)"/>
<path d="M0 0 C0.99 0 1.98 0 3 0 C3.66 0.99 4.32 1.98 5 3 C5.99 3.66 6.98 4.32 8 5 C8 5.99 8 6.98 8 8 C7.34 8 6.68 8 6 8 C5.67 9.65 5.34 11.3 5 13 C1.6852332 8.82051142 0.8141447 5.23378733 0 0 Z " fill="#59493C" transform="translate(174,161)"/>
<path d="M0 0 C0.99 0.33 1.98 0.66 3 1 C3.36666667 8.33333333 3.36666667 8.33333333 1.625 11.5 C0 13 0 13 -2 13 C-2.16682272 8.07872966 -2.24828052 4.49656104 0 0 Z " fill="#523437" transform="translate(51,155)"/>
<path d="M0 0 C5.66037736 3.64779874 5.66037736 3.64779874 7.6875 5.75 C9.05998563 7.34482759 9.05998563 7.34482759 12 7 C12.66 8.98 13.32 10.96 14 13 C7.41218356 11.84713212 3.79228952 7.15905376 0 2 C0 1.34 0 0.68 0 0 Z " fill="#4F3225" transform="translate(59,244)"/>
<path d="M0 0 C0.66 0.33 1.32 0.66 2 1 C1.75765625 1.59425781 1.5153125 2.18851563 1.265625 2.80078125 C-1.30195963 9.15061554 -3.69486758 15.55053377 -6 22 C-6.33 22 -6.66 22 -7 22 C-7.37503829 16.87447673 -6.14595604 13.62205916 -4 9 C-3.649375 7.9275 -3.29875 6.855 -2.9375 5.75 C-2 3 -2 3 0 0 Z " fill="#332F2E" transform="translate(76,149)"/>
<path d="M0 0 C1.32 0.66 2.64 1.32 4 2 C4 2.66 4 3.32 4 4 C4.66 4 5.32 4 6 4 C6.33 5.32 6.66 6.64 7 8 C5.35 7.01 3.7 6.02 2 5 C1.34 7.31 0.68 9.62 0 12 C-0.66 11.34 -1.32 10.68 -2 10 C-1.64644564 7.73725212 -1.02455574 6.04911148 0 4 C-0.66 4 -1.32 4 -2 4 C-1.34 2.68 -0.68 1.36 0 0 Z " fill="#392E29" transform="translate(175,131)"/>
<path d="M0 0 C0.33 0 0.66 0 1 0 C1.13504138 1.93559313 1.23201129 3.873872 1.3125 5.8125 C1.37050781 6.89144531 1.42851563 7.97039062 1.48828125 9.08203125 C1 12 1 12 -1.39453125 13.76171875 C-2.25433594 14.17035156 -3.11414062 14.57898438 -4 15 C-4.66 15.66 -5.32 16.32 -6 17 C-5.67 14.69 -5.34 12.38 -5 10 C-4.34 10 -3.68 10 -3 10 C-3 10.66 -3 11.32 -3 12 C-2.34 11.67 -1.68 11.34 -1 11 C-0.5316735 8.41394668 -0.5316735 8.41394668 -0.375 5.4375 C-0.30023438 4.42558594 -0.22546875 3.41367188 -0.1484375 2.37109375 C-0.09945312 1.58863281 -0.05046875 0.80617188 0 0 Z M-8 17 C-7.34 17.33 -6.68 17.66 -6 18 C-6.33 18.66 -6.66 19.32 -7 20 C-9.0625 20.625 -9.0625 20.625 -11 21 C-11 20.34 -11 19.68 -11 19 C-10.01 18.34 -9.02 17.68 -8 17 Z " fill="#434440" transform="translate(65,104)"/>
<path d="M0 0 C0.66 0 1.32 0 2 0 C4.125 6.75 4.125 6.75 3 9 C0.03 9 -2.94 9 -6 9 C-5.01 7.02 -4.02 5.04 -3 3 C-2.01 3 -1.02 3 0 3 C0 2.01 0 1.02 0 0 Z " fill="#201C1B" transform="translate(169,106)"/>
<path d="M0 0 C0.33 0 0.66 0 1 0 C1.38613383 2.62571005 1.38493778 4.3843879 -0.04296875 6.66796875 C-1.375 8.3125 -1.375 8.3125 -4 11 C-4.66 11 -5.32 11 -6 11 C-6.33 11.66 -6.66 12.32 -7 13 C-6.51098901 6.64285714 -6.51098901 6.64285714 -4.0625 3.5625 C-2 2 -2 2 0 2 C0 1.34 0 0.68 0 0 Z " fill="#9A9B9C" transform="translate(56,212)"/>
<path d="M0 0 C4.27131965 6.40697948 5.42104151 13.42125279 5 21 C4.34 21.33 3.68 21.66 3 22 C2.95101562 21.39671875 2.90203125 20.7934375 2.8515625 20.171875 C2.77679688 19.37265625 2.70203125 18.5734375 2.625 17.75 C2.55539063 16.96109375 2.48578125 16.1721875 2.4140625 15.359375 C2.11813993 12.98545385 2.11813993 12.98545385 0.96875 11 C-0.19823794 8.59073457 -0.20322736 6.90973028 -0.125 4.25 C-0.10695312 3.45078125 -0.08890625 2.6515625 -0.0703125 1.828125 C-0.04710937 1.22484375 -0.02390625 0.6215625 0 0 Z " fill="#C1907F" transform="translate(140,187)"/>
<path d="M0 0 C0.66 0 1.32 0 2 0 C3.60725635 3.21451269 3.05748185 6.43612536 3 10 C1.02 10.99 1.02 10.99 -1 12 C-0.67 8.04 -0.34 4.08 0 0 Z " fill="#835038" transform="translate(86,214)"/>
<path d="M0 0 C0.66 0 1.32 0 2 0 C2.08131463 1.43655854 2.13933559 2.8744483 2.1875 4.3125 C2.22230469 5.11300781 2.25710937 5.91351563 2.29296875 6.73828125 C1.93801608 9.47851584 1.10633718 10.29171079 -1 12 C-2.87643761 10.12356239 -2.17984987 7.50194299 -2.23046875 5.0078125 C-2 3 -2 3 0 0 Z " fill="#6B5749" transform="translate(70,197)"/>
<path d="M0 0 C0.99 0.33 1.98 0.66 3 1 C2.67 3.64 2.34 6.28 2 9 C1.34 9 0.68 9 0 9 C-0.33 10.98 -0.66 12.96 -1 15 C-2.32 15.33 -3.64 15.66 -5 16 C-4.34 14.68 -3.68 13.36 -3 12 C-2.34 12 -1.68 12 -1 12 C-0.67 8.04 -0.34 4.08 0 0 Z " fill="#AD8873" transform="translate(163,185)"/>
<path d="M0 0 C3.96216969 5.94325454 2.99294563 12.26324579 2 19 C-0.52775351 15.20836973 -0.22443035 12.19125969 -0.125 7.8125 C-0.11597656 7.06291016 -0.10695312 6.31332031 -0.09765625 5.54101562 C-0.07412578 3.69387346 -0.03825561 1.84689588 0 0 Z " fill="#885D4F" transform="translate(138,177)"/>
<path d="M0 0 C2.67927341 4.01891012 2.15601248 6.24161923 2 11 C0.02 9.35 -1.96 7.7 -4 6 C-4.33 6.99 -4.66 7.98 -5 9 C-5 7.35 -5 5.7 -5 4 C-4.01 4 -3.02 4 -2 4 C-1.34 2.68 -0.68 1.36 0 0 Z " fill="#5C4C45" transform="translate(182,136)"/>
<path d="M0 0 C3.63 0 7.26 0 11 0 C11 0.99 11 1.98 11 3 C6.99799622 4.60080151 3.95443764 3.29279692 0 2 C0 1.34 0 0.68 0 0 Z " fill="#1A100C" transform="translate(94,165)"/>
<path d="M0 0 C-0.33 0.99 -0.66 1.98 -1 3 C-3.64 2.67 -6.28 2.34 -9 2 C-9 1.34 -9 0.68 -9 0 C-10.65 0 -12.3 0 -14 0 C-14 -0.33 -14 -0.66 -14 -1 C-8.58264203 -1.93402724 -5.19548425 -2.20808081 0 0 Z " fill="#1D242A" transform="translate(103,80)"/>
<path d="M0 0 C0.66 0.33 1.32 0.66 2 1 C2.144375 2.093125 2.28875 3.18625 2.4375 4.3125 C2.99177938 7.94610928 3.57074951 9.35951034 6 12 C1.25 11.25 1.25 11.25 -1 9 C-1.32752234 6.28545044 -1.1308425 3.74769241 -1 1 C-0.67 0.67 -0.34 0.34 0 0 Z " fill="#583225" transform="translate(115,196)"/>
<path d="M0 0 C0.66 0.33 1.32 0.66 2 1 C1.53199289 5.05606165 1.12046792 8.46588679 -1 12 C-3 9 -3 9 -4 7 C-3.22265625 5.2734375 -3.22265625 5.2734375 -2.0625 3.375 C-1.381875 2.26125 -0.70125 1.1475 0 0 Z " fill="#49362E" transform="translate(176,169)"/>
<path d="M0 0 C0.99 0 1.98 0 3 0 C3.66 2.64 4.32 5.28 5 8 C4.01 8.495 4.01 8.495 3 9 C2.34 8.67 1.68 8.34 1 8 C1 7.01 1 6.02 1 5 C0.01 5 -0.98 5 -2 5 C-1.125 1.125 -1.125 1.125 0 0 Z " fill="#5D4F49" transform="translate(175,120)"/>
<path d="M0 0 C0.33 0 0.66 0 1 0 C1.0825 0.78375 1.165 1.5675 1.25 2.375 C1.72806339 5.14749104 1.72806339 5.14749104 4.0625 6.3125 C4.701875 6.539375 5.34125 6.76625 6 7 C5.01 7 4.02 7 3 7 C3 9.64 3 12.28 3 15 C1 11.25 1 11.25 1 9 C0.34 8.67 -0.32 8.34 -1 8 C-1.04241723 5.66705225 -1.04092937 3.33297433 -1 1 C-0.67 0.67 -0.34 0.34 0 0 Z " fill="#4E3D39" transform="translate(61,175)"/>
<path d="M0 0 C0 0.99 0 1.98 0 3 C-1.78871178 3.38885039 -3.58112874 3.76069196 -5.375 4.125 C-6.37273437 4.33382812 -7.37046875 4.54265625 -8.3984375 4.7578125 C-9.25695312 4.83773437 -10.11546875 4.91765625 -11 5 C-11.66 4.34 -12.32 3.68 -13 3 C-11.68 3 -10.36 3 -9 3 C-9 2.34 -9 1.68 -9 1 C-4.545 0.505 -4.545 0.505 0 0 Z " fill="#4B302C" transform="translate(104,168)"/>
<path d="M0 0 C0.33 0.66 0.66 1.32 1 2 C2.32 2 3.64 2 5 2 C5 2.99 5 3.98 5 5 C5.66 5 6.32 5 7 5 C7 5.66 7 6.32 7 7 C7.66 7.33 8.32 7.66 9 8 C8.01 8.33 7.02 8.66 6 9 C6 8.01 6 7.02 6 6 C3.36 6 0.72 6 -2 6 C-2.33 5.01 -2.66 4.02 -3 3 C-2.01 3 -1.02 3 0 3 C0 2.01 0 1.02 0 0 Z " fill="#664137" transform="translate(134,154)"/>
<path d="M0 0 C1.65 0.33 3.3 0.66 5 1 C4.67 2.65 4.34 4.3 4 6 C2.68 6.33 1.36 6.66 0 7 C-1.04449911 3.86650268 -0.93423645 3.01031744 0 0 Z " fill="#8E573D" transform="translate(105,260)"/>
<path d="M0 0 C0.33 0.66 0.66 1.32 1 2 C1.66 2 2.32 2 3 2 C2.51675181 7.15464734 -0.18610761 10.81550319 -3 15 C-3.33 14.01 -3.66 13.02 -4 12 C-3.34 11.01 -2.68 10.02 -2 9 C-2 8.195625 -2 7.39125 -2 6.5625 C-2 3.7750306 -1.40275798 2.36715409 0 0 Z " fill="#A9816E" transform="translate(155,222)"/>
<path d="M0 0 C6.75 0.75 6.75 0.75 9 3 C8.67 3.99 8.34 4.98 8 6 C5.36 5.01 2.72 4.02 0 3 C0 2.01 0 1.02 0 0 Z " fill="#3D170F" transform="translate(121,202)"/>
<path d="M0 0 C2.37160148 2.37160148 2.31983352 3.00621122 2.375 6.25 C2.29026953 11.01801445 1.05137615 13.39382819 -2 17 C-2.33 17 -2.66 17 -3 17 C-3 15.35 -3 13.7 -3 12 C-2.01 11.67 -1.02 11.34 0 11 C0 7.37 0 3.74 0 0 Z " fill="#6A584E" transform="translate(78,172)"/>
<path d="M0 0 C1.98 0.99 1.98 0.99 4 2 C3.01 2 2.02 2 1 2 C1.66 2.66 2.32 3.32 3 4 C4.33333333 5.33333333 5.66666667 6.66666667 7 8 C6.67 8.66 6.34 9.32 6 10 C4.02 9.34 2.04 8.68 0 8 C0 5.36 0 2.72 0 0 Z " fill="#34241F" transform="translate(149,166)"/>
<path d="M0 0 C0.99 0.33 1.98 0.66 3 1 C3 1.99 3 2.98 3 4 C2.34 4 1.68 4 1 4 C0.67 4.99 0.34 5.98 0 7 C-3.3125 7.6875 -3.3125 7.6875 -7 8 C-7.99 7.01 -8.98 6.02 -10 5 C-6.7 5 -3.4 5 0 5 C0 3.35 0 1.7 0 0 Z " fill="#93634E" transform="translate(159,193)"/>
<path d="M0 0 C1.5 1.375 1.5 1.375 3 3 C3 3.66 3 4.32 3 5 C2.01 5 1.02 5 0 5 C0.165 5.680625 0.33 6.36125 0.5 7.0625 C1.07089059 10.4164822 1.06659023 13.60389805 1 17 C0.67 17 0.34 17 0 17 C-2.66514806 5.47835991 -2.66514806 5.47835991 0 0 Z " fill="#473B35" transform="translate(177,135)"/>
<path d="M0 0 C4.875 2.625 4.875 2.625 6 6 C5.34 6.66 4.68 7.32 4 8 C2.35 6.68 0.7 5.36 -1 4 C-0.67 2.68 -0.34 1.36 0 0 Z " fill="#2B2523" transform="translate(160,95)"/>
<path d="M0 0 C4.95 0 9.9 0 15 0 C12 3 12 3 9.58984375 3.14453125 C8.71457031 3.03496094 7.83929688 2.92539063 6.9375 2.8125 C6.05964844 2.71582031 5.18179688 2.61914062 4.27734375 2.51953125 C2 2 2 2 0 0 Z " fill="#27282A" transform="translate(113,78)"/>
<path d="M0 0 C3.69418201 1.231394 5.35109746 3.20791354 8 6 C7.67 6.99 7.34 7.98 7 9 C4.36 6.69 1.72 4.38 -1 2 C-0.67 1.34 -0.34 0.68 0 0 Z " fill="#7E594B" transform="translate(75,261)"/>
<path d="M0 0 C1.32 0.99 2.64 1.98 4 3 C3.34 3 2.68 3 2 3 C1.67 3.99 1.34 4.98 1 6 C-1.60242414 7.64820195 -2.86248779 8 -6 8 C-5.67 7.01 -5.34 6.02 -5 5 C-3.66666667 4.33333333 -2.33333333 3.66666667 -1 3 C-0.67 2.01 -0.34 1.02 0 0 Z " fill="#763831" transform="translate(111,226)"/>
<path d="M0 0 C0.33 0 0.66 0 1 0 C0.67 2.97 0.34 5.94 0 9 C-1.32 9.33 -2.64 9.66 -4 10 C-4 8.35 -4 6.7 -4 5 C-3.01 5 -2.02 5 -1 5 C-0.67 3.35 -0.34 1.7 0 0 Z " fill="#2E2B29" transform="translate(68,171)"/>
<path d="M0 0 C2.475 0.99 2.475 0.99 5 2 C5 2.66 5 3.32 5 4 C5.66 4.33 6.32 4.66 7 5 C5.35 5.66 3.7 6.32 2 7 C0.5393715 4.35261084 0 3.10551666 0 0 Z " fill="#1E1917" transform="translate(115,148)"/>
<path d="M0 0 C2.875 0.1875 2.875 0.1875 6 1 C7.6718432 3.68948688 8.13293775 5.18021722 7.625 8.3125 C7.41875 8.869375 7.2125 9.42625 7 10 C4.20296548 8.60148274 4.13191945 6.86309036 3 4 C2.04175747 2.63634717 1.05278825 1.29205831 0 0 Z " fill="#734E42" transform="translate(155,184)"/>
<path d="M0 0 C0.99 0.66 1.98 1.32 3 2 C2.25 6.75 2.25 6.75 0 9 C0 7.35 0 5.7 0 4 C-0.99 4 -1.98 4 -3 4 C-2.67 3.01 -2.34 2.02 -2 1 C-1.34 0.67 -0.68 0.34 0 0 Z " fill="#3E4141" transform="translate(68,93)"/>
<path d="M0 0 C5.78461538 3.32307692 5.78461538 3.32307692 6.875 6.75 C6.936875 7.86375 6.936875 7.86375 7 9 C6.34 9 5.68 9 5 9 C0 3.64285714 0 3.64285714 0 0 Z " fill="#A87560" transform="translate(134,220)"/>
<path d="M0 0 C0.33 1.32 0.66 2.64 1 4 C0.34 4 -0.32 4 -1 4 C-1.99 5.485 -1.99 5.485 -3 7 C-3.66 7 -4.32 7 -5 7 C-5.12375 7.639375 -5.2475 8.27875 -5.375 8.9375 C-5.58125 9.618125 -5.7875 10.29875 -6 11 C-6.99 11.495 -6.99 11.495 -8 12 C-8 10.68 -8 9.36 -8 8 C-7.34 8 -6.68 8 -6 8 C-6 7.34 -6 6.68 -6 6 C-5.34 6 -4.68 6 -4 6 C-3.71125 5.38125 -3.4225 4.7625 -3.125 4.125 C-2 2 -2 2 0 0 Z " fill="#726969" transform="translate(56,217)"/>
<path d="M0 0 C0 0.66 0 1.32 0 2 C0.99 2.33 1.98 2.66 3 3 C2 4 2 4 -1.5625 4.0625 C-2.696875 4.041875 -3.83125 4.02125 -5 4 C-5.33 5.32 -5.66 6.64 -6 8 C-6.25 5.6875 -6.25 5.6875 -6 3 C-3.95575462 1.02389614 -2.8823175 0 0 0 Z " fill="#613B2E" transform="translate(122,194)"/>
<path d="M0 0 C-0.33 2.64 -0.66 5.28 -1 8 C-1.33 8 -1.66 8 -2 8 C-2 6.02 -2 4.04 -2 2 C-2.94875 2.495 -3.8975 2.99 -4.875 3.5 C-8 5 -8 5 -10 5 C-9.67 4.01 -9.34 3.02 -9 2 C-5.82757352 0.68964993 -3.44118336 0 0 0 Z " fill="#4C3E39" transform="translate(88,148)"/>
<path d="M0 0 C0.66 0.66 1.32 1.32 2 2 C1.625 5.125 1.625 5.125 1 8 C-0.65 8 -2.3 8 -4 8 C-4.33 7.01 -4.66 6.02 -5 5 C-3.35 5 -1.7 5 0 5 C0 3.35 0 1.7 0 0 Z M-6 7 C-5.67 8.32 -5.34 9.64 -5 11 C-5.66 10.01 -6.32 9.02 -7 8 C-6.67 7.67 -6.34 7.34 -6 7 Z " fill="#272727" transform="translate(162,114)"/>
<path d="M0 0 C1.5625 1.25 1.5625 1.25 3 3 C2.6875 5.1875 2.6875 5.1875 2 7 C0.02 7.33 -1.96 7.66 -4 8 C-3.34 6.02 -2.68 4.04 -2 2 C-1.34 2 -0.68 2 0 2 C0 1.34 0 0.68 0 0 Z " fill="#575F5F" transform="translate(61,106)"/>
<path d="M0 0 C1.32 0.33 2.64 0.66 4 1 C4.33 2.98 4.66 4.96 5 7 C5.66 7 6.32 7 7 7 C7 7.66 7 8.32 7 9 C5.68 8.34 4.36 7.68 3 7 C3 6.34 3 5.68 3 5 C2.01 4.67 1.02 4.34 0 4 C0 2.68 0 1.36 0 0 Z " fill="#171C20" transform="translate(112,81)"/>
<path d="M0 0 C0.66 0 1.32 0 2 0 C1.67 0.99 1.34 1.98 1 3 C0.01 3.33 -0.98 3.66 -2 4 C-3.22969878 7.51190809 -3.22969878 7.51190809 -4 11 C-6 8 -6 8 -5.625 5.3125 C-5.41875 4.549375 -5.2125 3.78625 -5 3 C-3.35 2.67 -1.7 2.34 0 2 C0 1.34 0 0.68 0 0 Z " fill="#43312B" transform="translate(55,224)"/>
<path d="M0 0 C2.97 0.495 2.97 0.495 6 1 C5 3 4 5 3 7 C3.66 7.33 4.32 7.66 5 8 C3.35 7.67 1.7 7.34 0 7 C0.185625 6.21625 0.37125 5.4325 0.5625 4.625 C1.25962266 2.02910225 1.25962266 2.02910225 0 0 Z " fill="#8F453E" transform="translate(113,229)"/>
<path d="M0 0 C0.99 0.33 1.98 0.66 3 1 C3 2.32 3 3.64 3 5 C4.32 4.67 5.64 4.34 7 4 C6.67 5.32 6.34 6.64 6 8 C5.01 8 4.02 8 3 8 C0 2.25 0 2.25 0 0 Z " fill="#605451" transform="translate(50,187)"/>
<path d="M0 0 C0.33 0 0.66 0 1 0 C2.12880057 3.31114834 3.21302675 6.58978257 4 10 C3.01 10 2.02 10 1 10 C0.34 9.34 -0.32 8.68 -1 8 C-0.96712417 5.27130593 -0.43602229 2.7033382 0 0 Z " fill="#714B3B" transform="translate(130,158)"/>
<path d="M0 0 C1.22589844 0.01353516 1.22589844 0.01353516 2.4765625 0.02734375 C3.41628906 0.04474609 3.41628906 0.04474609 4.375 0.0625 C4.045 1.0525 3.715 2.0425 3.375 3.0625 C-3.25 3.3125 -3.25 3.3125 -6.625 1.0625 C-4.21954362 -0.14022819 -2.67503047 -0.03821472 0 0 Z " fill="#412F26" transform="translate(97.625,160.9375)"/>
<path d="M0 0 C0 2.31 0 4.62 0 7 C-0.66 5.68 -1.32 4.36 -2 3 C-5.465 4.485 -5.465 4.485 -9 6 C-8 3 -8 3 -5.0625 1.3125 C-2 0 -2 0 0 0 Z " fill="#5B4B46" transform="translate(86,150)"/>
<path d="M0 0 C0.33 0.66 0.66 1.32 1 2 C1.99 2 2.98 2 4 2 C4.08167446 3.41569064 4.13949698 4.83276805 4.1875 6.25 C4.22230469 7.03890625 4.25710937 7.8278125 4.29296875 8.640625 C4 11 4 11 1 15 C1.33 11.37 1.66 7.74 2 4 C1.34 4 0.68 4 0 4 C0 2.68 0 1.36 0 0 Z " fill="#C18D72" transform="translate(157,210)"/>
<path d="M0 0 C0.33 0 0.66 0 1 0 C1.66 2.31 2.32 4.62 3 7 C1.625 8.5 1.625 8.5 0 10 C-0.66 10 -1.32 10 -2 10 C-1.85950482 8.52031676 -1.71245174 7.04125484 -1.5625 5.5625 C-1.48128906 4.73878906 -1.40007813 3.91507813 -1.31640625 3.06640625 C-1 1 -1 1 0 0 Z " fill="#312321" transform="translate(55,152)"/>
<path d="M0 0 C0.99 0 1.98 0 3 0 C3.33 0.99 3.66 1.98 4 3 C-1.75 7 -1.75 7 -4 7 C-4 6.34 -4 5.68 -4 5 C-3.34 5 -2.68 5 -2 5 C-1.34 3.35 -0.68 1.7 0 0 Z " fill="#30241F" transform="translate(82,142)"/>
<path d="M0 0 C0.33 1.32 0.66 2.64 1 4 C0.01 3.67 -0.98 3.34 -2 3 C-2.33 4.32 -2.66 5.64 -3 7 C-4.32 6.34 -5.64 5.68 -7 5 C-7 4.34 -7 3.68 -7 3 C-3.535 2.505 -3.535 2.505 0 2 C0 1.34 0 0.68 0 0 Z " fill="#925645" transform="translate(136,197)"/>
<path d="M0 0 C0.33 0 0.66 0 1 0 C1.125 3.375 1.125 3.375 1 7 C0.34 7.66 -0.32 8.32 -1 9 C-3 6 -3 6 -3 2 C-2.01 2 -1.02 2 0 2 C0 1.34 0 0.68 0 0 Z " fill="#6D5951" transform="translate(183,159)"/>
<path d="M0 0 C0.66 0.33 1.32 0.66 2 1 C2 1.66 2 2.32 2 3 C3.65 3.33 5.3 3.66 7 4 C7 4.33 7 4.66 7 5 C4.03 5 1.06 5 -2 5 C-1.34 3.35 -0.68 1.7 0 0 Z " fill="#835C4F" transform="translate(116,257)"/>
<path d="M0 0 C0.36923077 4.55384615 0.36923077 4.55384615 -1.5 6.8125 C-1.995 7.204375 -2.49 7.59625 -3 8 C-3.66 7.67 -4.32 7.34 -5 7 C-4.34 5.35 -3.68 3.7 -3 2 C-3.66 1.67 -4.32 1.34 -5 1 C-2 0 -2 0 0 0 Z " fill="#5D2D28" transform="translate(110,221)"/>
<path d="M0 0 C2.02907167 3.3146667 2.12742133 5.4315979 1.625 9.25 C1.51414062 10.14203125 1.40328125 11.0340625 1.2890625 11.953125 C1.19367188 12.62859375 1.09828125 13.3040625 1 14 C-1.36574234 10.4513865 -1.10865265 9.4235475 -0.625 5.3125 C-0.51414062 4.31863281 -0.40328125 3.32476562 -0.2890625 2.30078125 C-0.19367188 1.54152344 -0.09828125 0.78226563 0 0 Z " fill="#59493E" transform="translate(80,163)"/>
<path d="M0 0 C1.50559539 1.96382007 2.89131683 3.78263366 4 6 C3.72057545 7.67654729 3.39171753 9.34608154 3 11 C2.01 10.67 1.02 10.34 0 10 C-0.95024979 6.30458414 -0.95024979 3.69541586 0 0 Z " fill="#614F47" transform="translate(178,147)"/>
<path d="M0 0 C1.20628008 2.33214148 2.1654738 4.49642139 3 7 C2.34 7 1.68 7 1 7 C0.67 7.66 0.34 8.32 0 9 C-2 6 -2 6 -1.6875 3.9375 C-1 2 -1 2 0 0 Z " fill="#C88A6E" transform="translate(156,201)"/>
<path d="M0 0 C1.32 0.33 2.64 0.66 4 1 C4.66 3.64 5.32 6.28 6 9 C5.34 9 4.68 9 4 9 C3.67 9.99 3.34 10.98 3 12 C3.0928125 10.3603125 3.0928125 10.3603125 3.1875 8.6875 C3.37243237 5.08247389 3.37243237 5.08247389 1.5 3.1875 C1.005 2.795625 0.51 2.40375 0 2 C0 1.34 0 0.68 0 0 Z " fill="#593D34" transform="translate(141,159)"/>
<path d="M0 0 C0.99 0.33 1.98 0.66 3 1 C2.40138258 3.35171131 1.73075648 5.6859378 1 8 C0.01 8.495 0.01 8.495 -1 9 C-1 7.68 -1 6.36 -1 5 C-1.66 4.67 -2.32 4.34 -3 4 C-2.01 4 -1.02 4 0 4 C0 2.68 0 1.36 0 0 Z " fill="#58413C" transform="translate(54,183)"/>
<path d="M0 0 C2 3 2 3 3 6 C3.66 6 4.32 6 5 6 C4.67 6.99 4.34 7.98 4 9 C2.68 8.67 1.36 8.34 0 8 C-0.98120464 4.94736336 -0.98120464 3.05263664 0 0 Z " fill="#3C2D2A" transform="translate(57,159)"/>
<path d="M0 0 C0.99 0 1.98 0 3 0 C1.7508258 3.45925163 0.32472205 6.14693203 -2 9 C-2.66 8.67 -3.32 8.34 -4 8 C-2.68 5.36 -1.36 2.72 0 0 Z " fill="#906454" transform="translate(110,261)"/>
<path d="M0 0 C1.65 0 3.3 0 5 0 C4.67 0.99 4.34 1.98 4 3 C4.66 3.33 5.32 3.66 6 4 C4.02 4 2.04 4 0 4 C0 2.68 0 1.36 0 0 Z " fill="#8D4E43" transform="translate(124,224)"/>
<path d="M0 0 C-0.66 0 -1.32 0 -2 0 C-2.66 1.98 -3.32 3.96 -4 6 C-7 2.25 -7 2.25 -7 0 C-3.98968256 -0.93423645 -3.13349732 -1.04449911 0 0 Z " fill="#AD735E" transform="translate(158,201)"/>
<path d="M0 0 C1.98 0.495 1.98 0.495 4 1 C3.67 2.65 3.34 4.3 3 6 C2.01 5.67 1.02 5.34 0 5 C-0.33 4.01 -0.66 3.02 -1 2 C-0.67 1.34 -0.34 0.68 0 0 Z " fill="#784C3C" transform="translate(156,192)"/>
<path d="M0 0 C0.33 0.99 0.66 1.98 1 3 C2.32 3.66 3.64 4.32 5 5 C1.7 5 -1.6 5 -5 5 C-5 4.34 -5 3.68 -5 3 C-4.360625 2.87625 -3.72125 2.7525 -3.0625 2.625 C-2.0415625 2.315625 -2.0415625 2.315625 -1 2 C-0.67 1.34 -0.34 0.68 0 0 Z " fill="#563A36" transform="translate(105,168)"/>
<path d="M0 0 C2.46278801 2.46278801 2.99771255 4.70676982 4 8 C3.01 8.495 3.01 8.495 2 9 C2 8.34 2 7.68 2 7 C1.34 7 0.68 7 0 7 C-0.93423645 3.98968256 -1.04449911 3.13349732 0 0 Z " fill="#4C423C" transform="translate(179,128)"/>
<path d="M0 0 C5.875 3.625 5.875 3.625 7 7 C6.01 7 5.02 7 4 7 C0 2.65714286 0 2.65714286 0 0 Z " fill="#3E2E23" transform="translate(59,244)"/>
<path d="M0 0 C2.64 0 5.28 0 8 0 C7.67 0.99 7.34 1.98 7 3 C4.36 2.67 1.72 2.34 -1 2 C-0.67 1.34 -0.34 0.68 0 0 Z " fill="#653824" transform="translate(114,241)"/>
<path d="M0 0 C0.99 0.99 1.98 1.98 3 3 C1.02 3.99 1.02 3.99 -1 5 C-1.99 4.34 -2.98 3.68 -4 3 C-3.34 3 -2.68 3 -2 3 C-2 2.34 -2 1.68 -2 1 C-1.34 0.67 -0.68 0.34 0 0 Z " fill="#2D1A17" transform="translate(152,183)"/>
<path d="M0 0 C1.32 0.99 2.64 1.98 4 3 C2.35 3.33 0.7 3.66 -1 4 C-1.33 4.99 -1.66 5.98 -2 7 C-2 5.02 -2 3.04 -2 1 C-1.34 0.67 -0.68 0.34 0 0 Z " fill="#5D392A" transform="translate(142,176)"/>
<path d="M0 0 C0.66 0.33 1.32 0.66 2 1 C0.68 3.64 -0.64 6.28 -2 9 C-2.33 9 -2.66 9 -3 9 C-3.26218749 5.85375007 -3.24754367 4.38162983 -1.5 1.6875 C-1.005 1.130625 -0.51 0.57375 0 0 Z " fill="#2B211F" transform="translate(76,149)"/>
<path d="M0 0 C1.9375 0.3125 1.9375 0.3125 4 1 C4.33 1.99 4.66 2.98 5 4 C3.35 4 1.7 4 0 4 C0 2.68 0 1.36 0 0 Z " fill="#9F6054" transform="translate(132,232)"/>
<path d="M0 0 C0.99 0.33 1.98 0.66 3 1 C2.01 2.98 1.02 4.96 0 7 C-0.99 6.34 -1.98 5.68 -3 5 C-2.67 4.34 -2.34 3.68 -2 3 C-1.34 3 -0.68 3 0 3 C0 2.01 0 1.02 0 0 Z " fill="#9D7258" transform="translate(150,232)"/>
<path d="M0 0 C0.99 0.33 1.98 0.66 3 1 C3 2.98 3 4.96 3 7 C2.01 6.67 1.02 6.34 0 6 C0.33 5.01 0.66 4.02 1 3 C0.34 2.67 -0.32 2.34 -1 2 C-0.67 1.34 -0.34 0.68 0 0 Z " fill="#58423A" transform="translate(56,188)"/>
<path d="M0 0 C0.33 0.99 0.66 1.98 1 3 C-0.32 3.99 -1.64 4.98 -3 6 C-1.125 1.125 -1.125 1.125 0 0 Z M-6 7 C-5.34 7.33 -4.68 7.66 -4 8 C-4.99 8.66 -5.98 9.32 -7 10 C-6.67 9.01 -6.34 8.02 -6 7 Z " fill="#72463C" transform="translate(137,186)"/>
<path d="M0 0 C4.455 0.99 4.455 0.99 9 2 C5 4 5 4 2.25 3.125 C1.5075 2.75375 0.765 2.3825 0 2 C0 1.34 0 0.68 0 0 Z " fill="#6E4B42" transform="translate(104,172)"/>
<path d="M0 0 C0.99 0.33 1.98 0.66 3 1 C3 2.32 3 3.64 3 5 C1.68 5 0.36 5 -1 5 C-0.67 3.35 -0.34 1.7 0 0 Z " fill="#2D1C19" transform="translate(59,168)"/>
<path d="M0 0 C2.86724686 0.57344937 3.8614515 0.8614515 6 3 C8.57061311 3.64767793 8.57061311 3.64767793 11 4 C11 4.33 11 4.66 11 5 C8.3125 5.3125 8.3125 5.3125 5 5 C2.125 2.5 2.125 2.5 0 0 Z " fill="#4C382F" transform="translate(117,157)"/>
<path d="M0 0 C0.99 0 1.98 0 3 0 C2.67 1.32 2.34 2.64 2 4 C0.68 4 -0.64 4 -2 4 C-1.34 2.68 -0.68 1.36 0 0 Z " fill="#3E2822" transform="translate(131,151)"/>
<path d="M0 0 C2.475 0.495 2.475 0.495 5 1 C4.34 2.32 3.68 3.64 3 5 C2.01 4.67 1.02 4.34 0 4 C0 2.68 0 1.36 0 0 Z " fill="#3A3130" transform="translate(167,120)"/>
<path d="M0 0 C0.99 0.33 1.98 0.66 3 1 C3.6875 3.0625 3.6875 3.0625 4 5 C3.01 5.33 2.02 5.66 1 6 C0.34 5.67 -0.32 5.34 -1 5 C-0.67 3.35 -0.34 1.7 0 0 Z " fill="#443C3B" transform="translate(167,115)"/>
<path d="M0 0 C0.66 0 1.32 0 2 0 C1.01 2.97 0.02 5.94 -1 9 C-1.33 9 -1.66 9 -2 9 C-1.125 1.125 -1.125 1.125 0 0 Z " fill="#2D2F2E" transform="translate(69,103)"/>
</svg>
